<svg id="svg" style="width: 100%; height: 100%" xmlns="http://www.w3.org/2000/svg" xmlns:xlink="http://www.w3.org/1999/xlink" width="400" height="400" viewBox="0, 0, 400,400"><g id="svgg"><path fill="#e62719" id="path0" d="M163.095 1.517 C 146.449 6.838,137.500 20.415,137.500 40.348 L 137.500 49.945 98.633 50.168 L 59.766 50.391 55.078 52.689 C 49.096 55.622,43.122 61.596,40.189 67.578 L 37.891 72.266 37.671 91.406 C 37.424 112.809,37.641 113.829,43.157 117.192 C 47.169 119.638,352.831 119.638,356.843 117.192 C 362.359 113.829,362.576 112.809,362.329 91.406 L 362.109 72.266 359.811 67.578 C 356.878 61.596,350.904 55.622,344.922 52.689 L 340.234 50.391 301.367 50.168 L 262.500 49.945 262.500 40.276 C 262.500 20.082,253.094 6.231,235.991 1.239 C 229.207 -0.742,169.447 -0.513,163.095 1.517 M226.893 25.748 C 234.182 27.439,236.824 31.619,237.337 42.275 L 237.709 50.000 200.000 50.000 L 162.291 50.000 162.663 42.275 C 163.166 31.824,165.868 27.408,172.752 25.783 C 176.442 24.912,223.157 24.882,226.893 25.748 M57.805 144.931 C 56.674 146.294,66.539 362.521,68.087 370.311 C 70.693 383.420,80.210 394.062,93.189 398.381 C 98.116 400.020,98.270 400.022,201.641 399.816 L 305.160 399.609 311.258 396.595 C 322.149 391.212,329.755 381.542,331.929 370.313 C 333.474 362.336,343.317 146.283,342.198 144.934 C 340.703 143.133,59.299 143.131,57.805 144.931 M143.788 165.042 C 150.092 169.290,149.609 161.725,149.609 256.250 C 149.609 339.564,149.597 340.256,148.005 342.966 C 143.075 351.357,131.925 351.357,126.995 342.966 C 124.467 338.663,124.467 173.837,126.995 169.534 C 130.591 163.414,138.308 161.349,143.788 165.042 M206.288 165.042 C 212.592 169.290,212.109 161.725,212.109 256.250 C 212.109 339.564,212.097 340.256,210.505 342.966 C 205.575 351.357,194.425 351.357,189.495 342.966 C 186.967 338.663,186.967 173.837,189.495 169.534 C 193.091 163.414,200.808 161.349,206.288 165.042 M268.788 165.042 C 275.092 169.290,274.609 161.725,274.609 256.250 C 274.609 339.564,274.597 340.256,273.005 342.966 C 268.075 351.357,256.925 351.357,251.995 342.966 C 249.467 338.663,249.467 173.837,251.995 169.534 C 255.591 163.414,263.308 161.349,268.788 165.042 " stroke="none" fill="#000000" fill-rule="evenodd"></path></g></svg>