<svg id="svg"  style="
  width: 150px;
  height: 150px; version="1.1" xmlns="http://www.w3.org/2000/svg" xmlns:xlink="http://www.w3.org/1999/xlink" width="400" height="400" viewBox="0, 0, 400,400"><g id="svgg"><path id="path0" d="M188.600 61.186 C 184.425 61.513,178.981 62.173,176.972 62.595 C 166.933 64.705,153.294 69.525,151.600 71.561 C 151.490 71.693,150.943 72.036,150.384 72.323 C 140.551 77.375,130.727 91.220,128.049 103.800 C 127.814 104.900,127.438 106.645,127.211 107.677 C 126.954 108.852,126.800 118.894,126.800 134.505 L 126.800 159.456 125.900 160.271 C 123.831 162.145,121.911 165.347,120.786 168.800 C 119.987 171.252,119.909 205.269,120.700 206.060 C 120.975 206.335,121.200 206.879,121.200 207.268 C 121.200 208.964,125.141 214.535,127.563 216.264 C 129.064 217.334,129.230 217.665,130.432 221.991 C 132.881 230.805,134.872 235.971,139.299 245.000 C 142.676 251.889,147.550 259.860,151.877 265.570 L 153.218 267.339 153.092 282.370 C 152.956 298.664,152.948 298.728,150.564 303.553 C 148.178 308.379,144.389 311.842,137.200 315.766 C 134.010 317.507,130.680 319.331,129.800 319.819 C 128.920 320.307,127.030 321.331,125.600 322.094 C 124.170 322.857,122.190 323.937,121.200 324.494 C 120.210 325.051,118.230 326.131,116.800 326.894 C 115.370 327.657,113.390 328.732,112.400 329.284 C 108.898 331.234,101.761 335.120,98.800 336.689 C 97.150 337.563,94.990 338.752,94.000 339.330 C 93.010 339.909,91.210 340.873,90.000 341.472 C 88.790 342.072,87.710 342.661,87.600 342.781 C 87.490 342.902,87.040 343.195,86.600 343.434 C 86.160 343.672,84.360 344.644,82.600 345.594 C 73.726 350.381,68.831 355.049,72.540 355.187 C 72.727 355.194,73.510 355.830,74.280 356.600 C 75.050 357.370,75.797 358.000,75.940 358.001 C 76.083 358.001,76.830 358.541,77.600 359.200 C 78.370 359.859,79.153 360.399,79.340 360.399 C 79.526 360.400,80.158 360.895,80.743 361.500 C 81.329 362.105,82.033 362.646,82.309 362.702 C 82.585 362.758,83.375 363.343,84.065 364.002 C 84.754 364.661,85.479 365.200,85.676 365.200 C 85.873 365.200,86.420 365.560,86.892 366.000 C 87.364 366.440,87.987 366.800,88.275 366.800 C 88.564 366.800,88.800 366.980,88.800 367.200 C 88.800 367.420,89.070 367.600,89.400 367.600 C 89.730 367.600,90.000 367.780,90.000 368.000 C 90.000 368.220,90.270 368.400,90.600 368.400 C 90.930 368.400,91.200 368.558,91.200 368.751 C 91.200 368.945,91.740 369.327,92.400 369.600 C 93.060 369.873,93.600 370.255,93.600 370.449 C 93.600 370.642,93.920 370.800,94.312 370.800 C 94.703 370.800,95.283 371.160,95.600 371.600 C 95.917 372.040,96.362 372.404,96.588 372.409 C 96.815 372.414,97.450 372.770,98.000 373.200 C 98.550 373.630,99.238 373.986,99.529 373.991 C 99.819 373.996,100.327 374.270,100.657 374.600 C 100.987 374.930,101.604 375.200,102.029 375.200 C 102.453 375.200,102.800 375.380,102.800 375.600 C 102.800 375.820,103.160 376.000,103.600 376.000 C 104.040 376.000,104.400 376.152,104.400 376.337 C 104.400 376.523,105.255 377.108,106.300 377.637 C 107.345 378.167,108.260 378.735,108.333 378.900 C 108.407 379.065,108.686 379.200,108.954 379.200 C 109.663 379.200,111.593 380.149,111.597 380.500 C 111.599 380.665,112.061 380.800,112.624 380.800 C 113.187 380.800,113.558 380.944,113.449 381.120 C 113.340 381.296,114.050 381.676,115.026 381.964 C 116.002 382.253,116.800 382.648,116.800 382.844 C 116.800 383.040,117.072 383.200,117.405 383.200 C 117.963 383.200,119.528 383.925,120.000 384.402 C 120.110 384.513,120.920 384.840,121.800 385.129 C 123.502 385.686,124.961 386.270,126.095 386.847 C 126.477 387.041,127.062 387.200,127.395 387.200 C 127.728 387.200,128.000 387.380,128.000 387.600 C 128.000 387.820,128.450 388.000,129.000 388.000 C 129.550 388.000,130.000 388.191,130.000 388.424 C 130.000 388.657,130.135 388.768,130.300 388.671 C 130.465 388.573,131.050 388.680,131.600 388.908 C 132.150 389.135,133.047 389.396,133.593 389.487 C 134.138 389.578,134.678 389.793,134.793 389.964 C 134.975 390.240,135.472 390.413,138.000 391.084 C 138.330 391.172,139.320 391.344,140.200 391.466 C 141.080 391.589,141.860 391.849,141.933 392.044 C 142.007 392.240,142.491 392.400,143.010 392.400 C 143.528 392.400,144.064 392.580,144.200 392.800 C 144.336 393.020,144.977 393.200,145.624 393.200 C 146.271 393.200,146.800 393.380,146.800 393.600 C 146.800 393.820,147.520 394.000,148.400 394.000 C 149.280 394.000,150.000 394.180,150.000 394.400 C 150.000 394.620,150.720 394.800,151.600 394.800 C 152.480 394.800,153.200 394.980,153.200 395.200 C 153.200 395.420,153.999 395.600,154.976 395.600 C 155.953 395.600,156.864 395.780,157.000 396.000 C 157.136 396.220,157.957 396.400,158.824 396.400 C 159.691 396.400,160.400 396.580,160.400 396.800 C 160.400 397.020,161.300 397.200,162.400 397.200 C 163.500 397.200,164.400 397.380,164.400 397.600 C 164.400 397.822,165.467 398.000,166.800 398.000 C 168.120 398.000,169.200 398.166,169.200 398.368 C 169.200 398.571,170.505 398.832,172.100 398.948 C 173.695 399.064,177.340 399.359,180.200 399.604 C 187.410 400.222,224.202 399.958,224.876 399.284 C 225.161 398.999,226.491 398.800,228.104 398.800 C 229.831 398.800,230.756 398.652,230.600 398.400 C 230.445 398.149,231.321 398.000,232.953 398.000 C 234.383 398.000,235.664 397.820,235.800 397.600 C 235.936 397.380,236.746 397.200,237.600 397.200 C 238.454 397.200,239.264 397.020,239.400 396.800 C 239.536 396.580,240.447 396.400,241.424 396.400 C 242.401 396.400,243.200 396.220,243.200 396.000 C 243.200 395.780,243.999 395.600,244.976 395.600 C 245.953 395.600,246.864 395.420,247.000 395.200 C 247.136 394.980,247.856 394.800,248.600 394.800 C 249.344 394.800,250.052 394.640,250.173 394.444 C 250.294 394.249,251.024 393.979,251.796 393.844 C 252.568 393.710,253.830 393.490,254.600 393.356 C 255.370 393.222,256.000 392.952,256.000 392.756 C 256.000 392.560,256.529 392.400,257.176 392.400 C 257.823 392.400,258.464 392.220,258.600 392.000 C 258.736 391.780,259.280 391.600,259.810 391.600 C 260.839 391.600,264.147 390.627,265.295 389.987 C 265.677 389.774,266.341 389.600,266.771 389.600 C 267.201 389.600,267.664 389.420,267.800 389.200 C 267.936 388.980,268.487 388.800,269.024 388.800 C 269.561 388.800,270.000 388.620,270.000 388.400 C 270.000 388.180,270.362 388.000,270.805 388.000 C 271.248 388.000,271.923 387.840,272.305 387.644 C 274.129 386.709,276.763 385.589,278.306 385.093 C 279.244 384.791,279.889 384.422,279.739 384.272 C 279.589 384.123,279.846 384.000,280.310 384.000 C 280.773 384.000,281.264 383.820,281.400 383.600 C 281.536 383.380,281.997 383.200,282.424 383.200 C 282.851 383.200,283.200 383.020,283.200 382.800 C 283.200 382.580,283.549 382.400,283.976 382.400 C 284.403 382.400,284.864 382.220,285.000 382.000 C 285.136 381.780,285.597 381.600,286.024 381.600 C 286.451 381.600,286.801 381.465,286.803 381.300 C 286.807 380.935,288.749 380.000,289.503 380.000 C 289.802 380.000,289.936 379.820,289.800 379.600 C 289.664 379.380,289.913 379.200,290.353 379.200 C 290.793 379.200,291.264 379.020,291.400 378.800 C 291.536 378.580,292.007 378.400,292.447 378.400 C 292.887 378.400,293.136 378.220,293.000 378.000 C 292.864 377.780,293.089 377.600,293.501 377.600 C 293.912 377.600,294.636 377.240,295.108 376.800 C 295.580 376.360,296.244 376.000,296.583 376.000 C 296.922 376.000,297.200 375.840,297.200 375.643 C 297.200 375.447,297.695 375.163,298.300 375.012 C 298.905 374.861,299.715 374.454,300.100 374.107 C 300.485 373.760,300.800 373.606,300.800 373.765 C 300.800 373.924,301.323 373.682,301.962 373.227 C 302.601 372.772,303.276 372.400,303.462 372.400 C 303.648 372.399,304.329 371.944,304.975 371.388 C 305.622 370.832,306.566 370.273,307.073 370.146 C 307.580 370.019,307.895 369.754,307.774 369.557 C 307.652 369.361,307.833 369.200,308.176 369.200 C 308.519 369.200,308.800 369.020,308.800 368.800 C 308.800 368.580,309.120 368.400,309.512 368.400 C 309.903 368.400,310.483 368.040,310.800 367.600 C 311.117 367.160,311.657 366.800,312.000 366.800 C 312.343 366.800,312.883 366.440,313.200 366.000 C 313.517 365.560,314.009 365.200,314.292 365.200 C 314.575 365.200,315.372 364.660,316.063 364.000 C 316.754 363.340,317.522 362.800,317.771 362.800 C 318.020 362.800,318.483 362.440,318.800 362.000 C 319.117 361.560,319.607 361.200,319.888 361.200 C 320.170 361.200,320.400 361.020,320.400 360.800 C 320.400 360.580,320.572 360.400,320.782 360.400 C 320.992 360.400,321.642 359.970,322.227 359.445 C 324.222 357.656,324.800 357.200,324.800 357.418 C 324.800 357.538,325.258 357.178,325.818 356.618 C 326.378 356.058,326.963 355.597,327.118 355.594 C 329.427 355.544,327.695 353.385,322.555 349.905 C 321.028 348.871,304.449 340.366,285.711 331.004 C 250.870 313.596,248.577 312.316,245.800 308.729 C 245.140 307.876,244.414 306.958,244.188 306.689 C 240.512 302.330,239.601 297.218,239.600 280.954 C 239.600 267.264,239.585 267.381,241.599 265.600 C 241.723 265.490,242.684 264.230,243.735 262.800 C 244.785 261.370,245.885 259.906,246.178 259.547 C 246.852 258.722,250.000 253.991,250.000 253.803 C 250.000 253.726,250.871 252.254,251.935 250.532 C 254.894 245.741,259.575 236.279,262.041 230.100 C 263.002 227.692,263.228 227.134,263.579 226.300 C 263.788 225.805,264.368 224.169,264.868 222.663 L 265.777 219.927 268.672 218.553 C 273.665 216.184,276.923 212.444,279.259 206.400 C 280.082 204.271,280.042 171.344,279.214 168.800 C 278.502 166.616,276.800 163.283,275.762 162.043 C 275.343 161.542,274.595 160.653,274.100 160.066 L 273.201 159.000 273.200 134.573 C 273.200 110.275,273.119 108.503,271.741 102.800 C 266.497 81.098,247.928 66.195,221.400 62.398 C 219.640 62.146,217.210 61.767,216.000 61.557 C 213.092 61.051,193.679 60.788,188.600 61.186 " stroke="none" fill="#e3ebeb" fill-rule="evenodd"></path><path id="path1" d="M178.300 0.275 C 176.375 0.361,174.800 0.604,174.800 0.816 C 174.800 1.027,173.540 1.200,172.000 1.200 C 170.400 1.200,169.200 1.371,169.200 1.600 C 169.200 1.822,168.133 2.000,166.800 2.000 C 165.467 2.000,164.400 2.178,164.400 2.400 C 164.400 2.620,163.410 2.800,162.200 2.800 C 160.990 2.800,160.000 2.980,160.000 3.200 C 160.000 3.420,159.291 3.600,158.424 3.600 C 157.557 3.600,156.736 3.780,156.600 4.000 C 156.464 4.220,155.553 4.400,154.576 4.400 C 153.599 4.400,152.800 4.580,152.800 4.800 C 152.800 5.020,152.080 5.200,151.200 5.200 C 150.320 5.200,149.600 5.380,149.600 5.600 C 149.600 5.820,148.981 6.000,148.224 6.000 C 147.467 6.000,146.736 6.180,146.600 6.400 C 146.464 6.620,145.823 6.800,145.176 6.800 C 144.529 6.800,144.000 6.980,144.000 7.200 C 144.000 7.420,143.370 7.600,142.600 7.600 C 141.830 7.600,141.200 7.780,141.200 8.000 C 141.200 8.220,140.660 8.400,140.000 8.400 C 139.340 8.400,138.800 8.580,138.800 8.800 C 138.800 9.020,138.260 9.200,137.600 9.200 C 136.940 9.200,136.400 9.356,136.400 9.546 C 136.400 9.736,135.588 10.003,134.595 10.139 C 133.602 10.275,132.039 10.749,131.120 11.193 C 130.201 11.637,129.211 12.000,128.919 12.000 C 128.628 12.000,128.032 12.180,127.595 12.400 C 127.158 12.620,126.442 12.980,126.005 13.200 C 125.568 13.420,124.938 13.600,124.605 13.600 C 124.272 13.600,124.000 13.747,124.000 13.928 C 124.000 14.108,123.100 14.500,122.000 14.800 C 120.900 15.100,120.000 15.492,120.000 15.672 C 120.000 15.853,119.640 16.000,119.200 16.000 C 118.760 16.000,118.400 16.180,118.400 16.400 C 118.400 16.620,118.051 16.800,117.624 16.800 C 117.197 16.800,116.736 16.980,116.600 17.200 C 116.464 17.420,116.003 17.600,115.576 17.600 C 115.149 17.600,114.800 17.780,114.800 18.000 C 114.800 18.220,114.566 18.400,114.280 18.400 C 113.544 18.400,111.607 19.341,111.603 19.700 C 111.601 19.865,111.240 20.000,110.800 20.000 C 110.360 20.000,110.000 20.180,110.000 20.400 C 110.000 20.620,109.640 20.800,109.200 20.800 C 108.760 20.800,108.400 20.980,108.400 21.200 C 108.400 21.420,108.055 21.600,107.633 21.600 C 107.212 21.600,106.807 21.735,106.733 21.900 C 106.566 22.276,104.436 23.575,103.500 23.871 C 103.115 23.993,102.800 24.252,102.800 24.447 C 102.800 24.641,102.440 24.800,102.000 24.800 C 101.560 24.800,101.200 24.980,101.200 25.200 C 101.200 25.420,100.840 25.600,100.400 25.600 C 99.960 25.600,99.598 25.735,99.595 25.900 C 99.593 26.065,98.828 26.556,97.895 26.990 C 96.383 27.695,94.141 29.058,93.600 29.601 C 93.490 29.711,92.905 30.056,92.300 30.368 C 91.695 30.680,91.200 31.085,91.200 31.268 C 91.200 31.450,90.880 31.600,90.488 31.600 C 90.097 31.600,89.517 31.960,89.200 32.400 C 88.883 32.840,88.369 33.200,88.059 33.200 C 87.748 33.200,87.203 33.516,86.847 33.903 C 86.491 34.289,85.705 34.860,85.100 35.170 C 84.495 35.481,84.000 35.885,84.000 36.068 C 84.000 36.250,83.730 36.400,83.400 36.400 C 83.070 36.400,82.800 36.580,82.800 36.800 C 82.800 37.020,82.596 37.200,82.347 37.200 C 82.098 37.200,81.603 37.524,81.247 37.919 C 80.891 38.314,79.970 39.077,79.200 39.613 C 77.539 40.771,76.601 41.517,75.447 42.600 C 74.979 43.040,73.835 43.917,72.906 44.548 C 71.977 45.180,70.709 46.170,70.087 46.748 C 69.465 47.327,68.156 48.426,67.178 49.191 C 66.200 49.956,64.230 51.804,62.800 53.298 C 59.805 56.427,57.206 59.027,53.063 63.041 C 51.450 64.604,49.606 66.580,48.965 67.433 C 48.324 68.285,47.327 69.485,46.748 70.100 C 46.170 70.715,45.180 71.979,44.549 72.909 C 43.917 73.839,42.906 75.077,42.300 75.660 C 41.695 76.244,41.200 76.830,41.200 76.964 C 41.200 77.098,40.660 77.772,40.000 78.463 C 39.340 79.154,38.800 79.922,38.800 80.171 C 38.800 80.420,38.440 80.883,38.000 81.200 C 37.560 81.517,37.200 82.007,37.200 82.288 C 37.200 82.570,37.020 82.800,36.800 82.800 C 36.580 82.800,36.400 83.030,36.400 83.312 C 36.400 83.593,36.040 84.083,35.600 84.400 C 35.160 84.717,34.800 85.257,34.800 85.600 C 34.800 85.943,34.440 86.483,34.000 86.800 C 33.560 87.117,33.200 87.657,33.200 88.000 C 33.200 88.343,32.840 88.883,32.400 89.200 C 31.960 89.517,31.600 90.097,31.600 90.488 C 31.600 90.880,31.450 91.200,31.268 91.200 C 31.085 91.200,30.680 91.695,30.368 92.300 C 30.056 92.905,29.711 93.490,29.601 93.600 C 29.058 94.141,27.695 96.383,26.990 97.895 C 26.556 98.828,26.065 99.593,25.900 99.595 C 25.735 99.598,25.600 99.960,25.600 100.400 C 25.600 100.840,25.420 101.200,25.200 101.200 C 24.980 101.200,24.800 101.560,24.800 102.000 C 24.800 102.440,24.620 102.800,24.400 102.800 C 24.180 102.800,24.000 103.070,24.000 103.400 C 24.000 103.730,23.820 104.000,23.600 104.000 C 23.380 104.000,23.200 104.270,23.200 104.600 C 23.200 104.930,23.020 105.200,22.800 105.200 C 22.580 105.200,22.400 105.560,22.400 106.000 C 22.400 106.440,22.220 106.800,22.000 106.800 C 21.780 106.800,21.600 107.160,21.600 107.600 C 21.600 108.040,21.420 108.400,21.200 108.400 C 20.980 108.400,20.800 108.760,20.800 109.200 C 20.800 109.640,20.620 110.000,20.400 110.000 C 20.180 110.000,20.000 110.345,20.000 110.767 C 20.000 111.188,19.865 111.593,19.700 111.667 C 19.201 111.888,17.600 115.222,17.600 116.038 C 17.600 116.457,17.420 116.800,17.200 116.800 C 16.980 116.800,16.800 117.160,16.800 117.600 C 16.800 118.040,16.620 118.400,16.400 118.400 C 16.180 118.400,16.000 118.760,16.000 119.200 C 16.000 119.640,15.820 120.000,15.600 120.000 C 15.380 120.000,15.200 120.349,15.200 120.776 C 15.200 121.203,15.020 121.664,14.800 121.800 C 14.580 121.936,14.400 122.487,14.400 123.024 C 14.400 123.561,14.220 124.000,14.000 124.000 C 13.780 124.000,13.600 124.272,13.600 124.605 C 13.600 124.938,13.441 125.523,13.247 125.905 C 12.044 128.270,10.355 133.027,10.125 134.700 C 9.997 135.635,9.736 136.400,9.546 136.400 C 9.356 136.400,9.200 136.940,9.200 137.600 C 9.200 138.260,9.020 138.800,8.800 138.800 C 8.580 138.800,8.400 139.340,8.400 140.000 C 8.400 140.660,8.220 141.200,8.000 141.200 C 7.780 141.200,7.600 141.830,7.600 142.600 C 7.600 143.370,7.420 144.000,7.200 144.000 C 6.980 144.000,6.800 144.630,6.800 145.400 C 6.800 146.170,6.620 146.800,6.400 146.800 C 6.180 146.800,6.000 147.430,6.000 148.200 C 6.000 148.970,5.820 149.600,5.600 149.600 C 5.380 149.600,5.200 150.320,5.200 151.200 C 5.200 152.080,5.020 152.800,4.800 152.800 C 4.580 152.800,4.400 153.599,4.400 154.576 C 4.400 155.553,4.220 156.464,4.000 156.600 C 3.780 156.736,3.600 157.557,3.600 158.424 C 3.600 159.291,3.420 160.000,3.200 160.000 C 2.980 160.000,2.800 160.889,2.800 161.976 C 2.800 163.063,2.620 164.064,2.400 164.200 C 2.180 164.336,2.000 165.517,2.000 166.824 C 2.000 168.141,1.822 169.200,1.600 169.200 C 1.372 169.200,1.200 170.389,1.200 171.967 C 1.200 173.824,1.036 174.788,0.700 174.900 C -0.032 175.144,-0.032 224.856,0.700 225.100 C 1.036 225.212,1.200 226.176,1.200 228.033 C 1.200 229.611,1.372 230.800,1.600 230.800 C 1.822 230.800,2.000 231.867,2.000 233.200 C 2.000 234.533,2.178 235.600,2.400 235.600 C 2.620 235.600,2.800 236.489,2.800 237.576 C 2.800 238.663,2.980 239.664,3.200 239.800 C 3.420 239.936,3.600 240.757,3.600 241.624 C 3.600 242.491,3.780 243.200,4.000 243.200 C 4.220 243.200,4.400 244.100,4.400 245.200 C 4.400 246.300,4.580 247.200,4.800 247.200 C 5.020 247.200,5.200 247.819,5.200 248.576 C 5.200 249.333,5.380 250.064,5.600 250.200 C 5.820 250.336,6.000 251.067,6.000 251.824 C 6.000 252.581,6.180 253.200,6.400 253.200 C 6.620 253.200,6.800 253.830,6.800 254.600 C 6.800 255.370,6.980 256.000,7.200 256.000 C 7.420 256.000,7.600 256.529,7.600 257.176 C 7.600 257.823,7.780 258.464,8.000 258.600 C 8.220 258.736,8.400 259.377,8.400 260.024 C 8.400 260.671,8.580 261.200,8.800 261.200 C 9.020 261.200,9.200 261.740,9.200 262.400 C 9.200 263.060,9.356 263.600,9.546 263.600 C 9.736 263.600,10.002 264.406,10.137 265.391 C 10.272 266.376,10.545 267.501,10.744 267.891 C 11.346 269.068,11.919 270.513,12.455 272.200 C 12.735 273.080,13.107 273.971,13.282 274.180 C 13.457 274.389,13.600 274.884,13.600 275.280 C 13.600 275.676,13.780 276.000,14.000 276.000 C 14.220 276.000,14.400 276.360,14.400 276.800 C 14.400 277.240,14.580 277.600,14.800 277.600 C 15.020 277.600,15.200 278.140,15.200 278.800 C 15.200 279.460,15.380 280.000,15.600 280.000 C 15.820 280.000,16.000 280.360,16.000 280.800 C 16.000 281.240,16.180 281.600,16.400 281.600 C 16.620 281.600,16.800 281.960,16.800 282.400 C 16.800 282.840,16.980 283.200,17.200 283.200 C 17.420 283.200,17.600 283.560,17.600 284.000 C 17.600 284.440,17.780 284.800,18.000 284.800 C 18.220 284.800,18.400 285.149,18.400 285.576 C 18.400 286.003,18.580 286.464,18.800 286.600 C 19.020 286.736,19.200 287.197,19.200 287.624 C 19.200 288.051,19.380 288.400,19.600 288.400 C 19.820 288.400,20.000 288.760,20.000 289.200 C 20.000 289.640,20.180 290.000,20.400 290.000 C 20.620 290.000,20.800 290.360,20.800 290.800 C 20.800 291.240,20.980 291.600,21.200 291.600 C 21.420 291.600,21.600 291.836,21.600 292.125 C 21.600 292.413,21.960 293.036,22.400 293.508 C 22.840 293.980,23.200 294.644,23.200 294.983 C 23.200 295.322,23.380 295.600,23.600 295.600 C 23.820 295.600,24.000 295.960,24.000 296.400 C 24.000 296.840,24.180 297.200,24.400 297.200 C 24.620 297.200,24.800 297.560,24.800 298.000 C 24.800 298.440,24.980 298.800,25.200 298.800 C 25.420 298.800,25.600 299.120,25.600 299.512 C 25.600 299.903,25.960 300.483,26.400 300.800 C 26.840 301.117,27.201 301.652,27.203 301.988 C 27.204 302.325,27.570 303.140,28.015 303.800 C 28.461 304.460,29.098 305.561,29.432 306.246 C 29.767 306.931,30.346 307.831,30.720 308.246 C 31.094 308.661,31.655 309.495,31.968 310.100 C 32.280 310.705,32.685 311.200,32.868 311.200 C 33.050 311.200,33.200 311.425,33.201 311.700 C 33.201 311.975,33.741 312.830,34.400 313.600 C 35.059 314.370,35.599 315.185,35.599 315.412 C 35.600 315.638,35.960 316.083,36.400 316.400 C 36.840 316.717,37.200 317.225,37.200 317.528 C 37.200 317.831,37.740 318.583,38.400 319.200 C 39.060 319.817,39.600 320.492,39.600 320.701 C 39.600 320.910,40.140 321.646,40.800 322.337 C 41.460 323.028,42.000 323.693,42.000 323.815 C 42.000 323.937,42.405 324.470,42.900 324.999 C 44.039 326.217,44.405 326.674,45.618 328.389 C 46.158 329.154,47.236 330.414,48.013 331.189 C 48.790 331.965,49.866 333.230,50.405 334.000 C 50.944 334.770,52.828 336.795,54.592 338.499 C 58.370 342.149,59.390 343.167,62.199 346.094 C 63.356 347.299,64.999 348.805,65.851 349.442 C 66.703 350.079,68.057 351.271,68.860 352.091 L 70.320 353.582 71.860 352.151 C 73.715 350.428,78.519 347.123,81.462 345.546 C 83.456 344.477,84.696 343.803,90.100 340.854 C 91.255 340.223,93.010 339.278,94.000 338.754 C 94.990 338.229,95.890 337.710,96.000 337.599 C 96.110 337.489,96.740 337.131,97.400 336.803 C 98.060 336.475,99.590 335.647,100.800 334.963 C 102.010 334.279,104.440 332.949,106.200 332.009 C 107.960 331.068,110.390 329.756,111.600 329.093 C 112.810 328.430,114.880 327.329,116.200 326.646 C 117.520 325.964,118.690 325.313,118.800 325.202 C 118.910 325.090,119.540 324.729,120.200 324.400 C 120.860 324.071,121.490 323.711,121.600 323.601 C 121.710 323.490,122.520 323.028,123.400 322.573 C 124.862 321.818,129.645 319.233,132.600 317.601 C 133.260 317.237,135.780 315.873,138.200 314.569 C 145.516 310.630,150.554 304.749,152.119 298.323 C 152.355 297.352,152.602 290.374,152.683 282.328 L 152.829 268.056 148.614 261.868 C 146.296 258.464,144.400 255.482,144.400 255.240 C 144.400 254.998,144.241 254.800,144.047 254.800 C 143.852 254.800,143.590 254.485,143.464 254.100 C 143.338 253.715,142.692 252.500,142.027 251.400 C 139.216 246.748,135.572 238.838,133.088 232.000 C 131.453 227.499,130.904 225.759,129.171 219.600 C 128.797 218.268,128.243 217.485,127.042 216.590 C 123.290 213.793,120.548 208.828,119.628 203.167 C 119.009 199.356,119.106 174.561,119.754 170.941 C 120.247 168.191,121.983 163.973,123.076 162.871 C 123.364 162.581,123.600 162.213,123.600 162.055 C 123.600 161.896,124.239 161.089,125.021 160.260 L 126.442 158.754 126.374 133.477 C 126.327 115.655,126.438 107.868,126.753 107.074 C 126.999 106.455,127.200 105.340,127.200 104.598 C 127.200 103.855,127.380 103.136,127.600 103.000 C 127.820 102.864,128.000 102.311,128.000 101.771 C 128.000 101.231,128.158 100.477,128.351 100.095 C 128.544 99.713,128.921 98.680,129.190 97.800 C 132.270 87.704,141.532 76.654,151.866 70.748 C 154.125 69.456,159.573 66.800,159.962 66.800 C 160.147 66.800,161.086 66.453,162.049 66.029 C 163.012 65.605,165.240 64.868,167.000 64.393 C 168.760 63.917,170.830 63.356,171.600 63.146 C 172.948 62.777,175.091 62.390,180.200 61.591 C 189.100 60.201,202.855 59.826,212.200 60.719 C 220.155 61.480,225.647 62.378,230.890 63.776 C 251.317 69.221,265.418 81.345,270.976 98.241 C 272.735 103.589,272.800 103.826,272.800 104.902 C 272.800 105.477,273.005 106.455,273.256 107.074 C 273.584 107.884,273.689 115.299,273.629 133.488 L 273.546 158.776 275.073 160.421 C 275.913 161.326,276.870 162.546,277.200 163.133 C 277.530 163.720,277.890 164.290,278.001 164.400 C 278.697 165.094,279.795 168.315,280.387 171.400 C 280.888 174.010,280.757 202.238,280.232 204.800 C 279.904 206.402,279.669 207.027,278.351 209.799 C 276.520 213.649,273.245 216.922,269.198 218.946 C 266.512 220.290,266.194 220.578,265.702 222.112 C 265.404 223.041,264.990 224.205,264.780 224.700 C 264.143 226.209,263.705 227.319,263.004 229.200 C 261.412 233.478,257.331 242.178,254.656 247.000 C 252.329 251.193,248.721 256.995,248.354 257.133 C 248.159 257.207,248.000 257.488,248.000 257.758 C 248.000 258.028,247.680 258.598,247.289 259.025 C 246.898 259.451,246.142 260.430,245.608 261.200 C 245.075 261.970,244.531 262.690,244.400 262.800 C 244.269 262.910,243.725 263.630,243.192 264.400 C 242.658 265.170,241.895 266.156,241.495 266.592 C 241.096 267.028,240.669 267.784,240.546 268.272 C 240.075 270.149,240.656 297.751,241.197 299.200 C 242.191 301.861,242.495 302.603,242.920 303.400 C 243.155 303.840,243.588 304.676,243.882 305.258 C 244.176 305.840,244.683 306.537,245.008 306.807 C 245.334 307.077,245.600 307.470,245.600 307.680 C 245.600 308.085,247.794 310.262,250.050 312.098 C 250.793 312.702,264.810 319.897,281.200 328.087 C 297.590 336.276,311.060 343.117,311.133 343.289 C 311.207 343.460,311.503 343.600,311.791 343.600 C 313.845 343.600,328.344 352.600,328.384 353.900 C 328.409 354.689,328.759 354.506,330.331 352.887 C 331.139 352.055,332.430 350.933,333.200 350.394 C 333.970 349.855,336.180 347.791,338.112 345.807 C 342.342 341.463,341.463 342.342,345.807 338.112 C 347.791 336.180,349.855 333.970,350.394 333.200 C 350.933 332.430,352.016 331.170,352.800 330.400 C 353.584 329.630,354.668 328.370,355.209 327.600 C 355.749 326.830,356.688 325.678,357.296 325.041 C 357.903 324.403,358.400 323.736,358.400 323.559 C 358.400 323.381,358.850 322.786,359.400 322.236 C 359.950 321.686,360.400 321.048,360.400 320.818 C 360.400 320.588,360.580 320.400,360.800 320.400 C 361.020 320.400,361.200 320.170,361.200 319.888 C 361.200 319.607,361.560 319.117,362.000 318.800 C 362.440 318.483,362.800 317.991,362.800 317.708 C 362.800 317.425,363.340 316.628,364.000 315.937 C 364.660 315.246,365.200 314.478,365.200 314.229 C 365.200 313.980,365.560 313.517,366.000 313.200 C 366.440 312.883,366.800 312.343,366.800 312.000 C 366.800 311.657,367.160 311.117,367.600 310.800 C 368.040 310.483,368.400 309.986,368.400 309.695 C 368.400 309.404,368.760 308.780,369.200 308.308 C 369.640 307.836,370.224 306.944,370.497 306.325 C 370.771 305.706,371.103 305.200,371.235 305.200 C 371.366 305.200,371.905 304.345,372.432 303.300 C 372.958 302.255,373.502 301.310,373.639 301.200 C 374.099 300.832,375.200 298.447,375.200 297.820 C 375.200 297.479,375.380 297.200,375.600 297.200 C 375.820 297.200,376.000 296.922,376.000 296.583 C 376.000 296.244,376.360 295.580,376.800 295.108 C 377.240 294.636,377.600 294.013,377.600 293.725 C 377.600 293.436,377.780 293.200,378.000 293.200 C 378.220 293.200,378.400 292.840,378.400 292.400 C 378.400 291.960,378.580 291.600,378.800 291.600 C 379.020 291.600,379.200 291.240,379.200 290.800 C 379.200 290.360,379.335 289.999,379.500 289.997 C 379.859 289.993,380.800 288.056,380.800 287.320 C 380.800 287.034,380.980 286.800,381.200 286.800 C 381.420 286.800,381.600 286.451,381.600 286.024 C 381.600 285.597,381.780 285.136,382.000 285.000 C 382.220 284.864,382.400 284.403,382.400 283.976 C 382.400 283.549,382.580 283.200,382.800 283.200 C 383.020 283.200,383.200 282.840,383.200 282.400 C 383.200 281.960,383.380 281.600,383.600 281.600 C 383.820 281.600,384.000 281.240,384.000 280.800 C 384.000 280.360,384.180 280.000,384.400 280.000 C 384.620 280.000,384.800 279.561,384.800 279.024 C 384.800 278.487,384.980 277.936,385.200 277.800 C 385.420 277.664,385.600 277.203,385.600 276.776 C 385.600 276.349,385.780 276.000,386.000 276.000 C 386.220 276.000,386.400 275.728,386.400 275.395 C 386.400 275.062,386.580 274.432,386.800 273.995 C 387.020 273.558,387.380 272.842,387.600 272.405 C 387.820 271.968,388.000 271.248,388.000 270.805 C 388.000 270.362,388.180 270.000,388.400 270.000 C 388.620 270.000,388.800 269.638,388.800 269.195 C 388.800 268.752,388.976 268.077,389.191 267.695 C 389.868 266.492,391.600 260.826,391.600 259.815 C 391.600 259.283,391.780 258.736,392.000 258.600 C 392.220 258.464,392.400 257.823,392.400 257.176 C 392.400 256.529,392.580 256.000,392.800 256.000 C 393.020 256.000,393.200 255.370,393.200 254.600 C 393.200 253.830,393.380 253.200,393.600 253.200 C 393.820 253.200,394.000 252.581,394.000 251.824 C 394.000 251.067,394.180 250.336,394.400 250.200 C 394.620 250.064,394.800 249.333,394.800 248.576 C 394.800 247.819,394.980 247.200,395.200 247.200 C 395.420 247.200,395.600 246.300,395.600 245.200 C 395.600 244.100,395.780 243.200,396.000 243.200 C 396.220 243.200,396.400 242.390,396.400 241.400 C 396.400 240.410,396.580 239.600,396.800 239.600 C 397.020 239.600,397.200 238.700,397.200 237.600 C 397.200 236.500,397.380 235.600,397.600 235.600 C 397.822 235.600,398.000 234.533,398.000 233.200 C 398.000 231.867,398.178 230.800,398.400 230.800 C 398.628 230.800,398.800 229.611,398.800 228.033 C 398.800 226.176,398.964 225.212,399.300 225.100 C 400.032 224.856,400.032 175.144,399.300 174.900 C 398.964 174.788,398.800 173.824,398.800 171.967 C 398.800 170.389,398.628 169.200,398.400 169.200 C 398.178 169.200,398.000 168.133,398.000 166.800 C 398.000 165.467,397.822 164.400,397.600 164.400 C 397.380 164.400,397.200 163.511,397.200 162.424 C 397.200 161.337,397.020 160.336,396.800 160.200 C 396.580 160.064,396.400 159.243,396.400 158.376 C 396.400 157.509,396.220 156.800,396.000 156.800 C 395.780 156.800,395.600 155.900,395.600 154.800 C 395.600 153.700,395.420 152.800,395.200 152.800 C 394.980 152.800,394.800 152.181,394.800 151.424 C 394.800 150.667,394.620 149.936,394.400 149.800 C 394.180 149.664,394.000 148.933,394.000 148.176 C 394.000 147.419,393.820 146.800,393.600 146.800 C 393.380 146.800,393.200 146.170,393.200 145.400 C 393.200 144.630,393.020 144.000,392.800 144.000 C 392.580 144.000,392.400 143.370,392.400 142.600 C 392.400 141.830,392.220 141.200,392.000 141.200 C 391.780 141.200,391.600 140.759,391.600 140.220 C 391.600 139.040,388.755 130.256,388.312 130.067 C 388.140 129.993,388.000 129.586,388.000 129.161 C 388.000 128.737,387.820 128.032,387.600 127.595 C 387.380 127.158,387.020 126.442,386.800 126.005 C 386.580 125.568,386.400 124.938,386.400 124.605 C 386.400 124.272,386.220 124.000,386.000 124.000 C 385.780 124.000,385.600 123.561,385.600 123.024 C 385.600 122.487,385.420 121.936,385.200 121.800 C 384.980 121.664,384.800 121.203,384.800 120.776 C 384.800 120.349,384.620 120.000,384.400 120.000 C 384.180 120.000,384.000 119.640,384.000 119.200 C 384.000 118.760,383.820 118.400,383.600 118.400 C 383.380 118.400,383.200 118.040,383.200 117.600 C 383.200 117.160,383.020 116.800,382.800 116.800 C 382.580 116.800,382.400 116.451,382.400 116.024 C 382.400 115.597,382.220 115.136,382.000 115.000 C 381.780 114.864,381.600 114.403,381.600 113.976 C 381.600 113.549,381.420 113.200,381.200 113.200 C 380.980 113.200,380.800 112.840,380.800 112.400 C 380.800 111.960,380.620 111.600,380.400 111.600 C 380.180 111.600,380.000 111.240,380.000 110.800 C 380.000 110.360,379.820 110.000,379.600 110.000 C 379.380 110.000,379.200 109.640,379.200 109.200 C 379.200 108.760,379.020 108.400,378.800 108.400 C 378.580 108.400,378.400 108.040,378.400 107.600 C 378.400 107.160,378.220 106.800,378.000 106.800 C 377.780 106.800,377.600 106.564,377.600 106.275 C 377.600 105.987,377.240 105.364,376.800 104.892 C 376.360 104.420,376.000 103.756,376.000 103.417 C 376.000 103.078,375.820 102.800,375.600 102.800 C 375.380 102.800,375.200 102.474,375.200 102.076 C 375.200 101.679,374.615 100.370,373.900 99.168 C 373.185 97.966,372.346 96.495,372.036 95.898 C 371.726 95.302,371.141 94.458,370.736 94.023 C 370.331 93.589,370.000 92.996,370.000 92.705 C 370.000 92.414,369.640 91.917,369.200 91.600 C 368.760 91.283,368.400 90.743,368.400 90.400 C 368.400 90.057,368.040 89.517,367.600 89.200 C 367.160 88.883,366.800 88.369,366.800 88.059 C 366.800 87.748,366.484 87.203,366.097 86.847 C 365.711 86.491,365.140 85.705,364.830 85.100 C 364.519 84.495,364.115 84.000,363.932 84.000 C 363.750 84.000,363.600 83.730,363.600 83.400 C 363.600 83.070,363.420 82.800,363.200 82.800 C 362.980 82.800,362.800 82.570,362.800 82.288 C 362.800 82.007,362.440 81.517,362.000 81.200 C 361.560 80.883,361.200 80.420,361.200 80.171 C 361.200 79.922,360.660 79.154,360.000 78.463 C 359.340 77.772,358.800 77.063,358.800 76.887 C 358.800 76.711,358.214 75.944,357.497 75.183 C 356.780 74.423,355.752 73.170,355.212 72.400 C 354.673 71.630,353.773 70.550,353.214 70.000 C 352.655 69.450,351.674 68.299,351.034 67.441 C 350.394 66.584,348.528 64.581,346.887 62.989 C 342.981 59.199,342.313 58.531,337.701 53.793 C 335.555 51.590,333.170 49.347,332.400 48.809 C 331.630 48.271,330.550 47.374,330.000 46.815 C 329.450 46.256,328.198 45.259,327.218 44.600 C 326.238 43.940,324.958 42.905,324.375 42.300 C 323.791 41.695,323.196 41.200,323.053 41.200 C 322.910 41.200,322.228 40.660,321.537 40.000 C 320.846 39.340,320.126 38.800,319.937 38.800 C 319.748 38.800,319.028 38.260,318.337 37.600 C 317.646 36.940,316.878 36.400,316.629 36.400 C 316.380 36.400,315.917 36.040,315.600 35.600 C 315.283 35.160,314.743 34.800,314.400 34.800 C 314.057 34.800,313.517 34.440,313.200 34.000 C 312.883 33.560,312.343 33.200,312.000 33.200 C 311.657 33.200,311.117 32.840,310.800 32.400 C 310.483 31.960,309.943 31.600,309.600 31.600 C 309.257 31.600,308.717 31.240,308.400 30.800 C 308.083 30.360,307.671 30.000,307.484 30.000 C 307.297 30.000,306.392 29.498,305.472 28.884 C 304.552 28.270,303.037 27.415,302.105 26.984 C 301.172 26.553,300.407 26.065,300.405 25.900 C 300.402 25.735,300.040 25.600,299.600 25.600 C 299.160 25.600,298.800 25.420,298.800 25.200 C 298.800 24.980,298.522 24.800,298.183 24.800 C 297.844 24.800,297.180 24.440,296.708 24.000 C 296.236 23.560,295.613 23.200,295.325 23.200 C 295.036 23.200,294.800 23.020,294.800 22.800 C 294.800 22.580,294.440 22.400,294.000 22.400 C 293.560 22.400,293.200 22.220,293.200 22.000 C 293.200 21.780,292.855 21.600,292.433 21.600 C 292.012 21.600,291.607 21.463,291.533 21.296 C 291.460 21.129,289.780 20.211,287.800 19.255 C 285.820 18.300,283.887 17.357,283.505 17.159 C 283.123 16.962,282.538 16.800,282.205 16.800 C 281.872 16.800,281.600 16.620,281.600 16.400 C 281.600 16.180,281.240 16.000,280.800 16.000 C 280.360 16.000,280.000 15.820,280.000 15.600 C 280.000 15.380,279.651 15.200,279.224 15.200 C 278.797 15.200,278.336 15.020,278.200 14.800 C 278.064 14.580,277.513 14.400,276.976 14.400 C 276.439 14.400,276.000 14.220,276.000 14.000 C 276.000 13.780,275.728 13.600,275.395 13.600 C 275.062 13.600,274.477 13.441,274.095 13.247 C 273.713 13.052,272.905 12.692,272.300 12.447 C 271.695 12.201,270.795 11.829,270.300 11.620 C 268.375 10.808,265.526 10.000,264.586 10.000 C 264.044 10.000,263.600 9.820,263.600 9.600 C 263.600 9.380,263.060 9.200,262.400 9.200 C 261.740 9.200,261.200 9.020,261.200 8.800 C 261.200 8.580,260.660 8.400,260.000 8.400 C 259.340 8.400,258.800 8.220,258.800 8.000 C 258.800 7.780,258.170 7.600,257.400 7.600 C 256.630 7.600,256.000 7.420,256.000 7.200 C 256.000 6.980,255.471 6.800,254.824 6.800 C 254.177 6.800,253.536 6.620,253.400 6.400 C 253.264 6.180,252.533 6.000,251.776 6.000 C 251.019 6.000,250.400 5.820,250.400 5.600 C 250.400 5.380,249.680 5.200,248.800 5.200 C 247.920 5.200,247.200 5.038,247.200 4.840 C 247.200 4.642,246.390 4.372,245.400 4.240 C 244.410 4.108,242.790 3.892,241.800 3.760 C 240.810 3.628,240.000 3.358,240.000 3.160 C 240.000 2.962,239.010 2.800,237.800 2.800 C 236.590 2.800,235.600 2.620,235.600 2.400 C 235.600 2.178,234.533 2.000,233.200 2.000 C 231.867 2.000,230.800 1.822,230.800 1.600 C 230.800 1.372,229.611 1.200,228.033 1.200 C 226.198 1.200,225.211 1.034,225.103 0.708 C 224.941 0.222,187.291 -0.126,178.300 0.275 " stroke="none" fill="#546383" fill-rule="evenodd"></path><path id="path2" d="M192.900 60.676 C 193.285 60.776,193.915 60.776,194.300 60.676 C 194.685 60.575,194.370 60.493,193.600 60.493 C 192.830 60.493,192.515 60.575,192.900 60.676 M205.700 60.676 C 206.085 60.776,206.715 60.776,207.100 60.676 C 207.485 60.575,207.170 60.493,206.400 60.493 C 205.630 60.493,205.315 60.575,205.700 60.676 " stroke="none" fill="#929aac" fill-rule="evenodd"></path><path id="path3" d="M197.300 60.697 C 198.785 60.774,201.215 60.774,202.700 60.697 C 204.185 60.620,202.970 60.557,200.000 60.557 C 197.030 60.557,195.815 60.620,197.300 60.697 M187.500 61.093 C 188.435 61.177,189.965 61.177,190.900 61.093 C 191.835 61.009,191.070 60.940,189.200 60.940 C 187.330 60.940,186.565 61.009,187.500 61.093 M209.100 61.093 C 210.035 61.177,211.565 61.177,212.500 61.093 C 213.435 61.009,212.670 60.940,210.800 60.940 C 208.930 60.940,208.165 61.009,209.100 61.093 M180.505 61.887 C 181.114 61.979,182.014 61.977,182.505 61.882 C 182.997 61.787,182.500 61.711,181.400 61.714 C 180.300 61.717,179.897 61.795,180.505 61.887 M217.705 61.887 C 218.314 61.979,219.214 61.977,219.705 61.882 C 220.197 61.787,219.700 61.711,218.600 61.714 C 217.500 61.717,217.097 61.795,217.705 61.887 M171.200 63.618 C 170.762 63.915,170.924 63.952,171.800 63.756 C 173.271 63.427,173.590 63.198,172.567 63.206 C 172.145 63.209,171.530 63.395,171.200 63.618 M253.200 74.490 C 253.200 74.577,254.235 75.528,255.500 76.603 C 256.765 77.679,257.440 78.144,257.000 77.636 C 256.164 76.671,253.200 74.217,253.200 74.490 M142.800 77.800 C 141.828 78.790,141.123 79.600,141.233 79.600 C 141.343 79.600,142.228 78.790,143.200 77.800 C 144.172 76.810,144.877 76.000,144.767 76.000 C 144.657 76.000,143.772 76.810,142.800 77.800 M138.981 81.700 L 137.400 83.400 139.100 81.819 C 140.681 80.348,140.984 80.000,140.681 80.000 C 140.616 80.000,139.851 80.765,138.981 81.700 M133.400 89.200 C 133.059 89.860,132.869 90.400,132.979 90.400 C 133.089 90.400,133.459 89.860,133.800 89.200 C 134.141 88.540,134.331 88.000,134.221 88.000 C 134.111 88.000,133.741 88.540,133.400 89.200 M128.846 99.267 C 128.821 99.634,128.696 100.264,128.570 100.667 C 128.352 101.362,128.363 101.363,128.797 100.687 C 129.048 100.296,129.173 99.666,129.073 99.287 C 128.911 98.668,128.888 98.666,128.846 99.267 M271.458 101.600 C 271.775 103.325,272.002 103.651,271.994 102.367 C 271.991 101.835,271.811 101.130,271.594 100.800 C 271.318 100.378,271.277 100.615,271.458 101.600 M272.268 105.000 C 272.571 106.977,272.802 107.314,272.794 105.767 C 272.791 105.125,272.616 104.330,272.405 104.000 C 272.145 103.591,272.101 103.910,272.268 105.000 M127.293 106.000 C 127.293 106.770,127.375 107.085,127.476 106.700 C 127.576 106.315,127.576 105.685,127.476 105.300 C 127.375 104.915,127.293 105.230,127.293 106.000 M273.388 134.400 C 273.388 148.150,273.438 153.775,273.500 146.900 C 273.561 140.025,273.561 128.775,273.500 121.900 C 273.438 115.025,273.388 120.650,273.388 134.400 M126.497 134.620 C 126.435 150.372,126.254 159.616,126.001 159.921 C 125.778 160.191,125.868 160.174,126.205 159.884 C 126.730 159.431,126.793 156.234,126.700 134.583 L 126.594 109.800 126.497 134.620 M277.200 164.050 C 277.200 164.398,278.437 166.800,278.617 166.800 C 278.704 166.800,278.661 166.485,278.521 166.100 C 278.233 165.306,277.200 163.703,277.200 164.050 M279.800 187.600 C 279.800 197.124,279.925 204.215,280.077 203.358 C 280.438 201.328,280.438 173.872,280.077 171.842 C 279.925 170.985,279.800 178.076,279.800 187.600 M119.697 187.200 C 119.669 195.010,119.771 202.105,119.923 202.967 C 120.180 204.421,120.129 179.456,119.866 175.000 C 119.801 173.900,119.725 179.390,119.697 187.200 M123.032 211.600 C 123.628 212.825,126.063 215.589,127.311 216.458 C 128.172 217.057,127.926 216.698,126.571 215.377 C 125.455 214.290,124.137 212.860,123.641 212.200 C 123.146 211.540,122.872 211.270,123.032 211.600 M274.094 214.812 C 273.375 215.465,272.937 216.000,273.119 216.000 C 273.301 216.000,273.968 215.460,274.600 214.800 C 276.070 213.265,275.786 213.272,274.094 214.812 M129.606 220.233 C 129.609 220.655,129.795 221.270,130.018 221.600 C 130.315 222.038,130.352 221.876,130.156 221.000 C 129.827 219.529,129.598 219.210,129.606 220.233 M130.406 223.033 C 130.409 223.455,130.595 224.070,130.818 224.400 C 131.115 224.838,131.152 224.676,130.956 223.800 C 130.627 222.329,130.398 222.010,130.406 223.033 M259.489 235.950 C 258.890 237.219,258.405 238.424,258.410 238.628 C 258.416 238.833,258.972 237.862,259.647 236.470 C 260.322 235.079,260.807 233.874,260.726 233.792 C 260.644 233.711,260.088 234.682,259.489 235.950 M252.253 250.100 L 251.533 251.400 252.358 250.400 C 253.089 249.513,253.414 248.800,253.086 248.800 C 253.024 248.800,252.649 249.385,252.253 250.100 M145.813 257.200 C 146.617 258.660,150.819 264.764,151.170 264.981 C 151.570 265.229,146.590 257.714,145.880 257.000 C 145.616 256.735,145.594 256.802,145.813 257.200 M245.296 260.605 C 244.132 262.403,244.400 262.400,245.773 260.600 C 246.360 259.830,246.697 259.202,246.520 259.205 C 246.344 259.208,245.793 259.838,245.296 260.605 M243.544 263.100 C 242.393 264.489,241.906 265.200,242.104 265.200 C 242.214 265.200,242.786 264.570,243.373 263.800 C 244.463 262.371,244.595 261.832,243.544 263.100 M239.780 281.400 C 239.780 288.880,239.834 291.883,239.899 288.074 C 239.965 284.265,239.965 278.145,239.899 274.474 C 239.833 270.803,239.779 273.920,239.780 281.400 M241.201 300.804 C 241.615 302.248,243.694 306.439,243.896 306.237 C 243.974 306.160,243.489 305.017,242.818 303.699 C 242.148 302.380,241.600 301.019,241.600 300.674 C 241.600 300.329,241.432 299.943,241.226 299.816 C 240.996 299.674,240.986 300.055,241.201 300.804 M244.714 307.404 C 244.941 307.847,245.548 308.566,246.063 309.002 C 246.967 309.766,246.965 309.752,246.006 308.597 C 244.413 306.679,244.279 306.555,244.714 307.404 M246.835 310.100 C 246.928 310.155,247.633 310.740,248.402 311.400 L 249.800 312.600 248.625 311.300 C 247.979 310.585,247.274 310.000,247.058 310.000 C 246.843 310.000,246.743 310.045,246.835 310.100 M142.081 312.572 C 140.325 313.814,139.897 314.345,141.400 313.418 C 143.478 312.135,144.191 311.599,143.789 311.620 C 143.575 311.630,142.807 312.059,142.081 312.572 M250.269 312.832 C 250.766 313.433,253.200 314.964,253.200 314.676 C 253.200 314.583,252.435 314.002,251.500 313.385 C 250.565 312.768,250.011 312.520,250.269 312.832 M118.700 325.477 C 117.656 326.058,116.863 326.597,116.940 326.673 C 117.100 326.834,120.800 324.814,120.800 324.566 C 120.800 324.315,120.743 324.340,118.700 325.477 M107.100 331.829 C 105.605 332.640,105.696 332.978,107.200 332.200 C 107.860 331.859,108.400 331.494,108.400 331.390 C 108.400 331.132,108.357 331.147,107.100 331.829 M102.700 334.229 C 101.205 335.040,101.296 335.378,102.800 334.600 C 103.460 334.259,104.000 333.894,104.000 333.790 C 104.000 333.532,103.957 333.547,102.700 334.229 M92.200 340.000 C 91.540 340.437,91.180 340.792,91.400 340.788 C 91.801 340.782,93.976 339.223,93.600 339.212 C 93.490 339.208,92.860 339.563,92.200 340.000 M84.300 344.277 C 83.256 344.858,82.463 345.397,82.540 345.473 C 82.700 345.634,86.400 343.614,86.400 343.366 C 86.400 343.115,86.343 343.140,84.300 344.277 M77.429 348.208 C 76.344 348.958,75.174 349.869,74.829 350.232 C 74.483 350.596,75.100 350.271,76.200 349.510 C 77.300 348.750,78.645 347.829,79.189 347.464 C 79.733 347.099,80.003 346.810,79.789 346.822 C 79.575 346.834,78.513 347.458,77.429 348.208 M323.200 350.125 C 323.200 350.224,323.861 350.809,324.668 351.425 C 325.476 352.041,326.011 352.341,325.856 352.091 C 325.540 351.579,323.200 349.847,323.200 350.125 M327.081 353.387 C 327.477 353.931,327.966 354.381,328.170 354.387 C 328.373 354.394,328.117 353.950,327.600 353.400 C 326.401 352.123,326.157 352.118,327.081 353.387 " stroke="none" fill="#9ca4b4" fill-rule="evenodd"></path><path id="path4" d="M196.500 60.298 C 198.425 60.371,201.575 60.371,203.500 60.298 C 205.425 60.225,203.850 60.165,200.000 60.165 C 196.150 60.165,194.575 60.225,196.500 60.298 M173.000 62.800 C 172.496 63.017,172.422 63.144,172.800 63.144 C 173.130 63.144,173.760 62.989,174.200 62.800 C 174.704 62.583,174.778 62.456,174.400 62.456 C 174.070 62.456,173.440 62.611,173.000 62.800 M225.800 62.800 C 226.240 62.989,226.870 63.144,227.200 63.144 C 227.578 63.144,227.504 63.017,227.000 62.800 C 226.560 62.611,225.930 62.456,225.600 62.456 C 225.222 62.456,225.296 62.583,225.800 62.800 M158.400 67.400 C 157.094 68.147,157.551 68.155,159.254 67.416 C 159.994 67.094,160.330 66.831,160.000 66.830 C 159.670 66.829,158.950 67.086,158.400 67.400 M153.200 70.036 C 152.536 70.579,152.469 70.715,153.000 70.440 C 154.305 69.766,155.028 69.212,154.600 69.215 C 154.380 69.217,153.750 69.586,153.200 70.036 M138.175 82.100 L 137.000 83.400 138.300 82.225 C 139.015 81.579,139.600 80.994,139.600 80.925 C 139.600 80.616,139.270 80.888,138.175 82.100 M134.779 86.431 C 133.871 87.768,133.189 88.922,133.264 88.997 C 133.339 89.071,134.166 87.977,135.103 86.566 C 136.039 85.155,136.721 84.000,136.617 84.000 C 136.514 84.000,135.687 85.094,134.779 86.431 M126.600 107.600 C 126.448 108.291,126.407 108.941,126.509 109.042 C 126.611 109.144,126.809 108.653,126.950 107.950 C 127.283 106.283,126.960 105.960,126.600 107.600 M273.742 116.200 C 273.741 118.180,273.808 119.040,273.892 118.112 C 273.976 117.184,273.977 115.564,273.895 114.512 C 273.812 113.460,273.743 114.220,273.742 116.200 M126.131 116.200 C 126.133 117.740,126.205 118.321,126.292 117.491 C 126.379 116.661,126.377 115.401,126.289 114.691 C 126.200 113.981,126.129 114.660,126.131 116.200 M120.249 168.215 C 120.112 168.573,120.015 169.166,120.034 169.533 C 120.053 169.900,120.227 169.669,120.421 169.020 C 120.798 167.758,120.665 167.133,120.249 168.215 M280.582 187.600 C 280.582 196.070,280.635 199.535,280.699 195.300 C 280.764 191.065,280.764 184.135,280.699 179.900 C 280.635 175.665,280.582 179.130,280.582 187.600 M119.381 187.400 C 119.380 195.320,119.434 198.617,119.499 194.726 C 119.565 190.835,119.565 184.355,119.500 180.326 C 119.434 176.297,119.381 179.480,119.381 187.400 M125.400 215.200 C 126.259 216.080,127.052 216.800,127.162 216.800 C 127.272 216.800,126.659 216.080,125.800 215.200 C 124.941 214.320,124.148 213.600,124.038 213.600 C 123.928 213.600,124.541 214.320,125.400 215.200 M274.181 215.300 L 272.600 217.000 274.300 215.419 C 275.881 213.948,276.184 213.600,275.881 213.600 C 275.816 213.600,275.051 214.365,274.181 215.300 M249.014 255.835 C 248.641 256.404,248.405 256.938,248.489 257.022 C 248.573 257.107,248.958 256.641,249.344 255.988 C 250.206 254.528,249.948 254.409,249.014 255.835 M240.623 267.289 C 239.976 268.212,239.737 292.923,240.347 295.786 C 240.486 296.438,240.543 290.530,240.472 282.658 C 240.360 270.098,240.423 268.225,240.982 267.372 C 241.779 266.155,241.468 266.083,240.623 267.289 M152.295 267.234 C 152.659 267.702,152.818 271.374,152.900 281.234 L 153.011 294.600 153.106 281.149 C 153.193 268.748,153.145 267.655,152.500 267.149 C 151.881 266.664,151.857 266.674,152.295 267.234 M148.399 306.100 C 147.810 306.904,147.713 307.184,148.145 306.833 C 148.801 306.300,149.793 304.800,149.489 304.800 C 149.413 304.800,148.922 305.385,148.399 306.100 M145.781 309.300 L 144.200 311.000 145.900 309.419 C 147.481 307.948,147.784 307.600,147.481 307.600 C 147.416 307.600,146.651 308.365,145.781 309.300 " stroke="none" fill="#8189a1" fill-rule="evenodd"></path></g></svg>