  <svg id="svg" xmlns="http://www.w3.org/2000/svg" xmlns:xlink="http://www.w3.org/1999/xlink" width="400" height="400" viewBox="0, 0, 400,400" style="
  width: 100%;
  height: 100%;
  "><g id="svgg"><path id="path0" d="M67.551 1.151 C 58.761 3.929,56.466 5.802,32.718 29.572 C 2.541 59.776,0.435 63.653,0.404 89.063 C 0.245 221.624,243.558 440.174,339.844 393.955 C 348.188 389.949,391.245 347.267,395.219 339.063 C 401.064 326.993,401.266 314.184,395.793 302.660 C 392.754 296.261,341.085 242.738,329.487 233.975 C 314.058 222.318,290.725 224.456,278.319 238.664 C 275.214 242.219,274.087 244.216,270.592 252.344 C 262.286 271.659,242.814 280.233,222.618 273.467 C 173.323 256.951,115.856 188.371,123.742 155.469 C 126.273 144.907,134.569 134.767,144.277 130.370 C 156.621 124.779,158.407 123.725,162.562 119.581 C 174.272 107.905,176.645 90.147,168.564 74.673 C 165.916 69.603,112.662 14.879,104.279 8.614 C 93.860 0.828,78.469 -2.300,67.551 1.151 " stroke="none" fill="#000000" fill-rule="evenodd"></path></g></svg>