<svg id="svg" xmlns="http://www.w3.org/2000/svg" xmlns:xlink="http://www.w3.org/1999/xlink" width="400" height="400" viewBox="0, 0, 400,400" style="
    width: 100%;
    height: 100%;
"><g id="svgg"><path id="path0" d="M187.824 1.849 C 179.802 4.831,173.547 9.970,169.156 17.188 C 163.966 25.717,164.063 24.270,164.063 93.942 C 164.063 138.826,163.809 157.526,163.176 159.342 C 161.480 164.206,163.579 164.063,94.083 164.063 C 24.187 164.063,25.745 163.958,17.100 169.199 C -5.890 183.136,-5.890 216.864,17.100 230.801 C 25.744 236.041,24.202 235.938,93.942 235.938 C 138.826 235.938,157.526 236.191,159.342 236.824 C 164.206 238.520,164.063 236.421,164.063 305.917 C 164.063 375.813,163.958 374.255,169.199 382.900 C 185.457 409.720,226.902 403.908,234.698 373.715 C 235.780 369.525,235.938 360.906,235.938 305.917 C 235.938 236.421,235.794 238.520,240.658 236.824 C 242.474 236.191,261.174 235.937,306.058 235.937 C 375.798 235.938,374.256 236.041,382.900 230.801 C 405.890 216.864,405.890 183.136,382.900 169.199 C 374.256 163.959,375.798 164.063,306.058 164.063 C 261.174 164.063,242.474 163.809,240.658 163.176 C 235.794 161.480,235.938 163.579,235.938 94.083 C 235.938 24.187,236.042 25.745,230.801 17.100 C 222.062 2.684,203.396 -3.940,187.824 1.849 " stroke="none" fill="#000000" fill-rule="evenodd" style="
    fill: white;
"></path></g></svg>