 <svg id="svg" xmlns="http://www.w3.org/2000/svg" xmlns:xlink="http://www.w3.org/1999/xlink" width="400" height="400" viewBox="0, 0, 400,400" style="
  width: 100%;
  height: 100%;
  "><g id="svgg"><path id="path0" d="M174.219 1.246 C 107.446 9.760,49.708 50.948,19.906 111.328 C 15.361 120.536,8.594 136.950,8.594 138.765 C 8.594 138.929,16.110 139.063,25.296 139.063 L 41.998 139.063 43.006 136.523 C 44.963 131.596,52.180 117.298,55.089 112.585 L 58.035 107.813 73.549 107.813 C 82.081 107.813,89.063 108.007,89.063 108.245 C 89.063 108.484,88.204 111.736,87.156 115.472 C 85.136 122.666,82.031 136.347,82.031 138.049 C 82.031 138.846,85.441 139.063,98.017 139.063 L 114.002 139.062 114.766 136.133 C 115.187 134.521,116.103 130.918,116.803 128.125 C 117.502 125.332,119.153 119.619,120.470 115.430 L 122.865 107.813 199.290 107.813 L 275.714 107.812 278.042 115.430 C 279.322 119.619,280.940 125.332,281.638 128.125 C 282.336 130.918,283.251 134.521,283.671 136.133 L 284.435 139.062 300.509 139.063 L 316.584 139.063 316.031 135.352 C 315.504 131.811,310.519 111.229,309.623 108.893 C 309.260 107.948,311.583 107.812,325.029 107.991 L 340.862 108.203 345.810 116.797 C 348.531 121.523,352.067 128.467,353.668 132.227 L 356.578 139.063 373.211 139.063 C 382.359 139.063,389.844 138.904,389.844 138.711 C 389.844 137.553,383.951 122.396,381.116 116.261 C 344.551 37.152,260.233 -9.721,174.219 1.246 M209.227 32.435 C 227.390 36.717,244.312 50.452,258.061 72.070 L 260.918 76.563 199.201 76.563 L 137.484 76.563 140.405 72.070 C 160.275 41.514,185.679 26.884,209.227 32.435 M109.936 60.696 C 108.433 63.192,105.930 67.783,104.373 70.898 L 101.543 76.563 93.303 76.563 C 88.607 76.563,85.251 76.260,85.499 75.858 C 86.995 73.438,111.620 55.152,112.389 55.890 C 112.543 56.038,111.439 58.200,109.936 60.696 M299.609 64.847 C 303.477 67.724,308.223 71.522,310.156 73.288 L 313.672 76.498 305.438 76.530 L 297.204 76.563 294.192 70.898 C 292.536 67.783,290.001 63.255,288.559 60.835 C 287.117 58.416,285.938 56.214,285.938 55.943 C 285.938 55.208,291.679 58.947,299.609 64.847 M2.148 168.031 C 1.372 168.484,0.781 169.754,0.781 170.972 C 0.781 173.830,24.612 231.368,26.312 232.617 C 28.517 234.236,43.192 233.932,45.132 232.227 C 46.403 231.109,54.357 214.729,60.971 199.609 L 62.338 196.484 63.665 199.609 C 72.894 221.337,77.100 230.372,78.671 231.836 C 81.209 234.203,94.837 234.485,97.583 232.227 C 99.295 230.819,125.000 173.497,125.000 171.087 C 125.000 167.104,107.382 165.053,103.246 168.555 C 101.966 169.638,94.986 186.475,88.758 203.501 C 88.334 204.660,86.340 200.644,80.806 187.485 C 72.003 166.552,72.577 167.188,62.470 167.188 C 52.902 167.188,53.983 165.945,44.490 187.861 C 40.479 197.121,36.963 204.431,36.677 204.106 C 36.391 203.781,33.389 195.653,30.006 186.044 C 24.841 171.376,23.562 168.462,22.033 167.880 C 19.532 166.929,3.835 167.049,2.148 168.031 M139.063 168.750 C 138.203 169.609,137.500 170.651,137.500 171.065 C 137.500 173.234,161.963 231.036,163.385 232.227 C 165.420 233.931,180.109 234.236,182.232 232.617 C 183.239 231.849,191.252 215.169,199.027 197.656 C 199.504 196.582,199.918 196.141,199.947 196.676 C 200.060 198.745,214.937 231.694,216.176 232.617 C 218.348 234.236,233.029 233.932,235.004 232.227 C 236.328 231.083,260.479 177.438,262.068 172.110 C 263.360 167.776,245.218 164.465,240.445 168.164 C 239.279 169.067,225.843 202.563,225.732 204.844 C 225.704 205.402,225.333 204.980,224.906 203.906 C 218.719 188.344,210.394 169.624,209.185 168.555 C 207.262 166.854,193.340 166.552,191.174 168.164 C 189.988 169.047,175.000 202.214,175.000 203.956 C 175.000 206.909,172.997 202.326,167.603 187.032 C 163.437 175.219,160.860 169.019,159.812 168.284 C 157.118 166.397,141.055 166.758,139.063 168.750 M276.293 168.616 C 275.582 169.402,275.000 170.575,275.000 171.224 C 275.000 172.432,298.105 228.822,299.754 231.641 C 300.988 233.748,316.117 234.475,319.029 232.567 C 320.625 231.521,325.276 222.234,334.519 201.632 L 336.806 196.536 344.240 213.698 C 353.194 234.365,352.473 233.594,362.828 233.594 C 373.275 233.594,371.507 235.947,386.311 202.344 C 402.501 165.593,402.430 167.187,387.891 167.188 C 376.240 167.188,377.614 165.256,364.547 200.000 C 362.751 204.775,362.590 204.962,361.853 203.125 C 355.690 187.778,347.304 168.927,346.300 168.164 C 344.452 166.761,330.521 166.845,328.494 168.272 C 327.622 168.886,323.571 177.167,319.166 187.342 L 311.378 205.327 304.918 187.234 C 301.366 177.283,297.859 168.701,297.127 168.164 C 294.819 166.472,277.901 166.839,276.293 168.616 M8.594 261.235 C 8.594 265.802,23.243 296.645,31.196 308.820 C 113.587 434.960,299.901 429.141,373.747 298.121 C 379.747 287.477,389.844 264.373,389.844 261.289 C 389.844 261.096,382.359 260.938,373.211 260.938 L 356.578 260.938 353.668 267.773 C 352.067 271.533,348.531 278.477,345.810 283.203 L 340.862 291.797 325.061 292.009 C 310.244 292.207,309.286 292.134,309.694 290.837 C 310.900 287.003,315.592 267.552,316.054 264.471 L 316.584 260.938 300.509 260.938 L 284.435 260.938 283.671 263.867 C 283.251 265.479,282.334 269.082,281.633 271.875 C 280.932 274.668,279.301 280.381,278.009 284.570 L 275.660 292.188 199.263 292.188 L 122.865 292.188 120.470 284.570 C 119.153 280.381,117.502 274.668,116.803 271.875 C 116.103 269.082,115.187 265.479,114.766 263.867 L 114.002 260.938 98.017 260.938 C 85.441 260.938,82.031 261.154,82.031 261.951 C 82.031 263.653,85.136 277.334,87.156 284.528 C 88.204 288.264,89.062 291.516,89.063 291.755 C 89.063 291.993,82.064 292.188,73.510 292.188 L 57.958 292.188 54.529 286.425 C 52.643 283.255,49.006 276.228,46.448 270.808 L 41.797 260.955 25.195 260.946 C 16.064 260.941,8.594 261.071,8.594 261.235 M104.373 329.102 C 105.930 332.217,108.395 336.745,109.852 339.165 C 111.308 341.584,112.500 343.786,112.500 344.059 C 112.500 345.228,95.028 332.663,88.281 326.642 L 84.766 323.504 93.154 323.471 L 101.543 323.438 104.373 329.102 M258.061 327.930 C 238.809 358.201,212.817 373.129,189.097 367.538 C 171.265 363.335,154.628 349.802,140.405 327.930 L 137.484 323.438 199.201 323.438 L 260.918 323.438 258.061 327.930 M310.156 326.712 C 303.405 332.877,285.938 345.304,285.938 343.941 C 285.938 343.606,286.757 342.107,287.759 340.611 C 288.760 339.115,291.283 334.639,293.366 330.664 L 297.152 323.438 305.412 323.470 L 313.672 323.502 310.156 326.712 " stroke="none" fill="#000000" fill-rule="evenodd"></path></g></svg>