
  <svg id="svg" xmlns="http://www.w3.org/2000/svg" xmlns:xlink="http://www.w3.org/1999/xlink" width="400" height="400" viewBox="0, 0, 400,400" version="1.1" style="
  width: 100%;
  height: 100%;
  "><g id="svgg"><path id="path0" d="M24.000 68.800 C 24.000 69.020,23.370 69.200,22.600 69.200 C 21.830 69.200,21.200 69.380,21.200 69.600 C 21.200 69.820,20.705 70.006,20.100 70.013 C 18.923 70.026,17.442 70.909,17.873 71.340 C 18.016 71.483,17.563 71.600,16.867 71.600 C 16.170 71.600,15.600 71.780,15.600 72.000 C 15.600 72.220,15.162 72.400,14.627 72.400 C 14.005 72.400,13.562 72.689,13.400 73.200 C 13.260 73.640,12.894 74.000,12.586 74.000 C 11.075 74.000,16.890 78.513,22.121 81.400 C 22.520 81.620,27.380 84.760,32.923 88.378 C 38.465 91.996,45.025 96.271,47.500 97.878 C 49.975 99.485,54.025 102.118,56.500 103.729 C 58.975 105.340,62.796 107.815,64.991 109.229 C 67.186 110.643,72.438 114.050,76.663 116.800 C 86.059 122.916,101.546 132.977,117.000 143.004 C 147.832 163.007,150.783 164.954,150.792 165.300 C 150.796 165.465,145.318 165.600,138.619 165.600 L 126.437 165.600 116.519 159.135 C 111.063 155.579,102.460 149.971,97.400 146.674 C 92.340 143.376,87.300 140.107,86.200 139.409 C 85.100 138.711,80.600 135.795,76.200 132.929 C 71.800 130.063,66.940 126.909,65.400 125.919 C 59.941 122.409,54.141 118.627,49.594 115.612 C 47.060 113.932,44.720 112.439,44.394 112.293 C 44.067 112.147,39.930 109.474,35.200 106.352 C 30.470 103.230,25.290 99.848,23.688 98.838 C 22.086 97.827,16.823 94.421,11.991 91.269 C 3.016 85.413,2.000 84.998,2.000 87.188 C 2.000 87.433,1.640 88.020,1.200 88.492 C 0.594 89.142,0.400 89.904,0.400 91.627 L 0.400 93.903 6.700 98.021 C 10.165 100.285,15.923 104.042,19.497 106.369 C 23.070 108.696,33.371 115.460,42.389 121.400 C 51.407 127.340,60.003 132.964,61.492 133.898 C 62.982 134.831,70.547 139.781,78.305 144.898 C 86.063 150.014,96.233 156.720,100.905 159.800 L 109.400 165.400 54.700 165.501 L 0.000 165.603 0.000 172.401 L 0.000 179.200 89.600 179.200 L 179.200 179.200 179.200 124.433 C 179.200 94.311,179.309 69.381,179.443 69.033 C 179.659 68.471,178.901 68.400,172.643 68.400 L 165.600 68.400 165.600 110.400 C 165.600 135.050,165.451 152.400,165.240 152.400 C 165.041 152.400,158.239 148.035,150.124 142.700 C 142.009 137.365,132.050 130.840,127.993 128.200 C 123.936 125.560,112.603 118.142,102.808 111.715 C 64.471 86.561,55.511 80.689,47.800 75.666 C 43.400 72.800,39.298 69.993,38.684 69.428 C 37.490 68.328,24.000 67.752,24.000 68.800 M220.800 123.800 L 220.800 179.200 310.400 179.200 L 400.000 179.200 400.000 172.400 L 400.000 165.600 345.600 165.600 C 315.680 165.600,291.202 165.465,291.204 165.300 C 291.208 165.009,299.015 159.806,323.600 143.708 C 346.186 128.919,355.268 122.965,363.735 117.400 C 368.420 114.320,375.566 109.640,379.615 107.000 C 383.663 104.360,389.639 100.445,392.896 98.300 C 396.152 96.155,398.992 94.400,399.208 94.400 C 400.005 94.400,399.661 89.417,398.800 88.492 C 398.360 88.020,398.000 87.356,398.000 87.017 C 398.000 86.678,397.820 86.400,397.600 86.400 C 397.380 86.400,397.200 85.786,397.200 85.036 C 397.200 84.011,396.901 83.420,396.000 82.661 C 395.340 82.106,394.800 81.460,394.800 81.226 C 394.800 80.992,394.620 80.800,394.400 80.800 C 394.180 80.800,394.000 80.459,394.000 80.043 C 394.000 78.937,392.919 78.703,391.892 79.586 C 391.401 80.007,386.910 83.018,381.911 86.276 C 376.911 89.534,369.104 94.630,364.561 97.600 C 360.018 100.570,355.828 103.278,355.251 103.618 C 353.775 104.485,350.698 106.480,340.674 113.066 C 335.875 116.220,331.862 118.800,331.757 118.800 C 331.652 118.800,331.349 118.985,331.083 119.212 C 330.665 119.568,317.920 127.895,308.800 133.770 C 307.150 134.833,301.080 138.785,295.311 142.552 C 289.541 146.318,284.515 149.580,284.141 149.800 C 283.768 150.020,279.218 152.972,274.031 156.361 C 268.844 159.749,263.472 163.214,262.093 164.061 L 259.586 165.600 247.369 165.600 C 238.582 165.600,235.229 165.476,235.425 165.160 C 235.575 164.918,237.250 163.729,239.148 162.518 C 243.151 159.966,242.640 160.297,254.600 152.513 C 259.660 149.220,265.330 145.536,267.200 144.327 C 272.712 140.762,286.224 131.995,297.600 124.603 C 303.430 120.815,311.551 115.544,315.647 112.890 C 319.744 110.236,325.144 106.731,327.647 105.101 C 336.637 99.250,348.655 91.411,351.529 89.524 C 353.141 88.466,354.522 87.600,354.600 87.600 C 354.678 87.600,359.071 84.765,364.361 81.300 C 369.651 77.835,375.515 74.023,377.390 72.828 C 380.965 70.551,381.439 70.000,379.824 70.000 C 379.287 70.000,378.736 69.820,378.600 69.600 C 378.464 69.380,377.823 69.200,377.176 69.200 C 376.529 69.200,376.000 69.020,376.000 68.800 C 376.000 68.116,362.134 68.273,361.871 68.960 C 361.752 69.268,360.698 70.143,359.528 70.904 C 358.358 71.665,355.600 73.456,353.400 74.885 C 351.200 76.313,345.080 80.324,339.800 83.798 C 334.520 87.272,325.520 93.172,319.800 96.910 C 299.940 109.887,296.969 111.834,287.313 118.200 C 277.629 124.584,267.642 131.117,261.200 135.283 C 259.330 136.492,252.708 140.838,246.484 144.941 C 240.260 149.043,234.995 152.400,234.784 152.400 C 234.541 152.400,234.400 136.981,234.400 110.400 L 234.400 68.400 227.600 68.400 L 220.800 68.400 220.800 123.800 M0.000 227.600 L 0.000 234.400 54.400 234.400 C 91.959 234.400,108.800 234.529,108.800 234.818 C 108.800 235.048,107.325 236.173,105.522 237.318 C 102.006 239.551,97.342 242.601,73.000 258.587 C 36.535 282.533,13.987 297.300,4.900 303.186 L 0.400 306.101 0.400 308.375 C 0.400 310.096,0.595 310.858,1.200 311.508 C 1.640 311.980,2.000 312.644,2.000 312.983 C 2.000 313.322,2.180 313.600,2.400 313.600 C 2.620 313.600,2.800 314.236,2.800 315.013 C 2.800 315.897,3.024 316.511,3.398 316.654 C 3.726 316.781,3.904 317.032,3.792 317.213 C 3.680 317.394,3.951 317.657,4.394 317.798 C 4.837 317.939,5.200 318.312,5.200 318.627 C 5.200 318.942,5.380 319.200,5.600 319.200 C 5.820 319.200,6.000 319.560,6.000 320.000 C 6.000 321.280,6.628 321.006,12.572 317.128 C 15.667 315.108,19.100 312.880,20.200 312.177 C 21.300 311.473,25.350 308.840,29.200 306.325 C 33.050 303.810,37.460 300.941,39.000 299.949 C 43.359 297.141,62.289 284.836,74.000 277.200 C 79.830 273.398,85.100 269.998,85.711 269.644 C 86.322 269.290,89.837 267.020,93.523 264.600 C 97.209 262.180,102.289 258.869,104.812 257.242 C 107.336 255.615,110.868 253.324,112.663 252.152 C 123.010 245.395,127.282 242.621,133.333 238.730 L 140.066 234.400 152.233 234.400 C 158.925 234.400,164.400 234.535,164.399 234.700 C 164.399 234.865,161.064 237.160,156.989 239.800 C 152.914 242.440,146.840 246.384,143.490 248.564 C 140.141 250.743,133.170 255.260,128.000 258.600 C 122.830 261.941,115.866 266.457,112.524 268.637 C 95.672 279.629,91.352 282.435,86.200 285.738 C 83.120 287.713,76.640 291.914,71.800 295.073 C 66.960 298.232,62.730 300.990,62.400 301.202 C 39.721 315.789,19.200 329.309,19.200 329.666 C 19.200 329.850,19.650 330.000,20.200 330.000 C 20.750 330.000,21.200 330.180,21.200 330.400 C 21.200 330.620,21.830 330.800,22.600 330.800 C 23.370 330.800,24.000 330.980,24.000 331.200 C 24.000 331.885,37.615 331.724,38.156 331.032 C 38.574 330.498,53.406 320.645,74.200 307.087 C 79.260 303.788,90.960 296.131,100.200 290.071 C 109.440 284.011,120.510 276.760,124.800 273.957 C 133.174 268.486,144.205 261.238,156.944 252.838 C 161.313 249.957,165.048 247.600,165.244 247.600 C 165.450 247.600,165.600 265.321,165.600 289.600 L 165.600 331.600 172.643 331.600 C 178.901 331.600,179.659 331.529,179.443 330.967 C 179.309 330.619,179.200 305.689,179.200 275.567 L 179.200 220.800 89.600 220.800 L 0.000 220.800 0.000 227.600 M220.800 276.200 L 220.800 331.600 227.600 331.600 L 234.400 331.600 234.400 289.600 C 234.400 266.500,234.502 247.600,234.626 247.600 C 235.106 247.600,236.951 248.781,251.792 258.587 C 260.209 264.148,267.254 268.767,267.448 268.850 C 267.868 269.030,265.663 267.583,306.093 294.203 C 310.434 297.061,314.600 299.760,315.351 300.200 C 316.103 300.640,323.404 305.410,331.577 310.800 C 339.750 316.190,349.803 322.815,353.918 325.522 C 358.033 328.229,361.600 330.704,361.844 331.022 C 362.382 331.723,376.000 331.894,376.000 331.200 C 376.000 330.980,376.630 330.800,377.400 330.800 C 378.170 330.800,378.800 330.620,378.800 330.400 C 378.800 330.180,379.387 330.000,380.104 330.000 C 380.974 330.000,381.574 329.734,381.907 329.200 C 382.226 328.690,382.840 328.400,383.603 328.400 C 384.262 328.400,384.800 328.220,384.800 328.000 C 384.800 327.780,385.160 327.600,385.600 327.600 C 386.108 327.600,386.400 327.333,386.400 326.870 C 386.400 326.053,384.818 325.002,334.600 292.447 C 328.440 288.454,323.130 285.010,322.800 284.795 C 320.010 282.976,301.491 270.935,300.400 270.230 C 299.630 269.733,295.040 266.746,290.200 263.593 C 285.360 260.440,280.140 257.055,278.600 256.070 C 277.060 255.085,273.010 252.455,269.600 250.224 C 266.190 247.994,259.497 243.665,254.726 240.604 C 249.955 237.544,246.141 234.896,246.250 234.720 C 246.358 234.544,251.839 234.400,258.428 234.400 L 270.410 234.400 273.105 236.144 C 274.587 237.103,277.690 239.103,280.000 240.589 C 285.465 244.105,294.008 249.676,309.800 260.026 C 316.840 264.640,322.870 268.538,323.200 268.688 C 323.530 268.839,328.390 271.957,334.000 275.617 C 349.864 285.968,362.333 294.075,365.384 296.023 C 366.916 297.000,372.170 300.410,377.061 303.600 C 381.951 306.790,388.303 310.906,391.176 312.748 C 394.049 314.589,396.400 316.264,396.400 316.471 C 396.400 316.678,396.580 316.736,396.800 316.600 C 397.020 316.464,397.200 315.733,397.200 314.976 C 397.200 314.219,397.380 313.600,397.600 313.600 C 397.820 313.600,398.000 313.322,398.000 312.983 C 398.000 312.644,398.360 311.980,398.800 311.508 C 399.406 310.858,399.600 310.096,399.600 308.372 L 399.600 306.094 393.900 302.379 C 390.765 300.335,385.680 297.011,382.600 294.993 C 358.089 278.928,338.366 266.011,332.900 262.443 C 329.325 260.109,322.030 255.320,316.689 251.800 C 311.348 248.280,304.657 243.870,301.819 242.000 C 298.982 240.130,296.197 238.325,295.630 237.989 C 293.283 236.596,291.200 235.072,291.200 234.747 C 291.200 234.553,315.158 234.400,345.600 234.400 L 400.000 234.400 400.000 227.600 L 400.000 220.800 310.400 220.800 L 220.800 220.800 220.800 276.200 " stroke="none" 
  fill="#f3f0f1" fill-rule="evenodd"></path><path id="path1" d="M179.443 69.033 C 179.309 69.381,179.200 94.311,179.200 124.433 L 179.200 179.200 89.600 179.200 L 0.000 179.200 0.000 200.000 L 0.000 220.800 89.600 220.800 L 179.200 220.800 179.200 275.567 C 179.200 305.689,179.309 330.619,179.443 330.967 C 179.660 331.533,181.866 331.600,200.243 331.600 L 220.800 331.600 220.800 276.200 L 220.800 220.800 310.400 220.800 L 400.000 220.800 400.000 200.000 L 400.000 179.200 310.400 179.200 L 220.800 179.200 220.800 123.800 L 220.800 68.400 200.243 68.400 C 181.866 68.400,179.660 68.467,179.443 69.033 M380.223 70.830 C 379.796 71.261,378.086 72.455,376.423 73.483 C 374.760 74.512,369.203 78.109,364.073 81.477 C 358.944 84.845,354.682 87.600,354.603 87.600 C 354.524 87.600,353.141 88.466,351.529 89.524 C 348.655 91.411,336.637 99.250,327.647 105.101 C 325.144 106.731,319.744 110.236,315.647 112.890 C 311.551 115.544,303.430 120.815,297.600 124.603 C 286.224 131.995,272.712 140.762,267.200 144.327 C 265.330 145.536,259.660 149.220,254.600 152.513 C 242.640 160.297,243.151 159.966,239.148 162.518 C 237.250 163.729,235.575 164.918,235.425 165.160 C 235.229 165.476,238.582 165.600,247.369 165.600 L 259.586 165.600 262.093 164.061 C 263.472 163.214,268.844 159.749,274.031 156.361 C 279.218 152.972,283.768 150.020,284.141 149.800 C 284.515 149.580,289.541 146.318,295.311 142.552 C 301.080 138.785,307.150 134.833,308.800 133.770 C 317.920 127.895,330.665 119.568,331.083 119.212 C 331.349 118.985,331.652 118.800,331.757 118.800 C 331.862 118.800,335.875 116.220,340.674 113.066 C 350.698 106.480,353.775 104.485,355.251 103.618 C 355.828 103.278,360.018 100.570,364.561 97.600 C 369.104 94.630,376.911 89.532,381.911 86.272 C 393.339 78.818,393.568 78.637,392.442 77.933 C 391.979 77.644,391.600 77.224,391.600 76.999 C 391.600 76.774,391.120 76.232,390.534 75.795 C 389.948 75.358,389.241 74.775,388.963 74.500 C 388.685 74.225,388.174 74.000,387.829 74.000 C 387.483 74.000,387.200 73.820,387.200 73.600 C 387.200 73.380,386.919 73.200,386.576 73.200 C 386.233 73.200,386.064 73.020,386.200 72.800 C 386.336 72.580,386.077 72.400,385.624 72.400 C 385.171 72.400,384.800 72.220,384.800 72.000 C 384.800 71.780,384.440 71.600,384.000 71.600 C 383.560 71.600,383.200 71.420,383.200 71.200 C 383.200 70.980,382.840 70.800,382.400 70.800 C 381.960 70.800,381.600 70.620,381.600 70.400 C 381.600 69.798,381.090 69.957,380.223 70.830 M9.500 75.793 C 8.895 76.326,8.400 76.853,8.400 76.965 C 8.400 77.077,7.680 77.882,6.800 78.753 C 5.920 79.624,5.200 80.582,5.200 80.880 C 5.200 81.179,4.840 81.683,4.400 82.000 C 3.960 82.317,3.597 82.942,3.594 83.388 C 3.589 84.059,3.520 84.096,3.200 83.600 C 2.903 83.141,2.815 83.282,2.825 84.200 C 2.839 85.416,6.390 87.907,23.691 98.838 C 25.291 99.848,30.470 103.230,35.200 106.352 C 39.930 109.474,44.067 112.147,44.394 112.293 C 44.720 112.439,47.060 113.932,49.594 115.612 C 54.141 118.627,59.941 122.409,65.400 125.919 C 66.940 126.909,71.800 130.063,76.200 132.929 C 80.600 135.795,85.100 138.711,86.200 139.409 C 87.300 140.107,92.340 143.376,97.400 146.674 C 102.460 149.971,111.063 155.579,116.519 159.135 L 126.437 165.600 138.619 165.600 C 145.318 165.600,150.796 165.465,150.792 165.300 C 150.783 164.954,147.832 163.007,117.000 143.004 C 101.546 132.977,86.059 122.916,76.663 116.800 C 72.438 114.050,67.186 110.643,64.991 109.229 C 62.796 107.815,59.020 105.369,56.600 103.794 C 54.180 102.220,50.130 99.587,47.600 97.943 C 45.070 96.300,38.459 91.996,32.909 88.378 C 27.358 84.760,22.513 81.620,22.142 81.400 C 21.771 81.180,19.336 79.605,16.733 77.900 C 11.542 74.501,11.111 74.375,9.500 75.793 M137.200 236.190 C 135.770 237.146,130.730 240.431,126.000 243.489 C 121.270 246.548,115.600 250.227,113.400 251.666 C 111.200 253.105,107.336 255.614,104.812 257.241 C 102.289 258.868,97.209 262.180,93.523 264.600 C 89.837 267.020,86.322 269.290,85.711 269.644 C 85.100 269.998,79.830 273.398,74.000 277.200 C 62.289 284.836,43.359 297.141,39.000 299.949 C 37.460 300.941,33.050 303.810,29.200 306.325 C 25.350 308.840,21.300 311.473,20.200 312.177 C 6.706 320.809,6.192 321.214,7.600 322.093 C 8.040 322.368,8.400 322.819,8.400 323.096 C 8.400 323.373,8.535 323.601,8.700 323.602 C 8.865 323.603,9.575 324.143,10.278 324.802 C 10.981 325.461,11.797 326.000,12.090 326.000 C 12.383 326.000,12.883 326.360,13.200 326.800 C 13.517 327.240,14.097 327.600,14.488 327.600 C 14.880 327.600,15.200 327.780,15.200 328.000 C 15.200 328.220,15.560 328.400,16.000 328.400 C 16.440 328.400,16.800 328.580,16.800 328.800 C 16.800 329.020,17.261 329.200,17.824 329.200 C 18.404 329.200,18.740 329.373,18.600 329.600 C 18.464 329.820,18.543 330.000,18.776 330.000 C 19.009 330.000,19.200 329.850,19.200 329.666 C 19.200 329.309,39.721 315.789,62.400 301.202 C 62.730 300.990,66.960 298.232,71.800 295.073 C 76.640 291.914,83.120 287.713,86.200 285.738 C 91.352 282.435,95.672 279.629,112.524 268.637 C 115.866 266.457,122.830 261.941,128.000 258.600 C 133.170 255.260,140.141 250.743,143.490 248.564 C 146.840 246.384,152.914 242.440,156.989 239.800 C 161.064 237.160,164.399 234.865,164.399 234.700 C 164.400 234.535,158.865 234.412,152.100 234.426 L 139.800 234.451 137.200 236.190 M246.250 234.720 C 246.141 234.896,249.955 237.544,254.726 240.604 C 259.497 243.665,266.190 247.994,269.600 250.224 C 273.010 252.455,277.060 255.085,278.600 256.070 C 280.140 257.055,285.360 260.440,290.200 263.593 C 295.040 266.746,299.630 269.733,300.400 270.230 C 301.491 270.935,320.010 282.976,322.800 284.795 C 323.130 285.010,328.440 288.453,334.600 292.446 C 346.785 300.344,362.163 310.329,376.600 319.716 C 381.660 323.006,386.025 325.981,386.300 326.326 C 386.602 326.705,386.800 326.765,386.800 326.476 C 386.800 326.214,387.086 326.000,387.436 326.000 C 388.310 326.000,391.137 323.954,391.415 323.120 C 391.539 322.747,391.992 322.330,392.420 322.194 C 392.849 322.057,393.200 321.728,393.200 321.461 C 393.200 321.195,393.560 320.717,394.000 320.400 C 394.440 320.083,394.800 319.543,394.800 319.200 C 394.800 318.857,395.160 318.317,395.600 318.000 C 397.134 316.894,396.534 316.181,391.176 312.748 C 388.303 310.906,381.951 306.790,377.061 303.600 C 372.170 300.410,366.916 297.000,365.384 296.023 C 362.333 294.075,349.864 285.968,334.000 275.617 C 328.390 271.957,323.530 268.839,323.200 268.688 C 322.870 268.538,316.840 264.640,309.800 260.026 C 294.008 249.676,285.465 244.105,280.000 240.589 C 277.690 239.103,274.587 237.103,273.105 236.144 L 270.410 234.400 258.428 234.400 C 251.839 234.400,246.358 234.544,246.250 234.720 " stroke="none" fill="#fb4c54" fill-rule="evenodd"></path><path id="path2" d="M38.000 68.744 C 38.000 69.202,38.497 69.551,47.800 75.641 C 56.084 81.064,72.177 91.617,102.808 111.715 C 112.603 118.142,123.936 125.560,127.993 128.200 C 132.050 130.840,142.009 137.365,150.124 142.700 C 158.239 148.035,165.041 152.400,165.240 152.400 C 165.451 152.400,165.600 135.041,165.600 110.376 C 165.600 82.463,165.466 68.436,165.200 68.600 C 164.938 68.762,164.800 83.004,164.800 110.024 C 164.800 132.671,164.720 151.200,164.623 151.200 C 164.347 151.200,161.656 149.582,158.800 147.698 C 157.370 146.755,155.864 145.762,155.454 145.492 C 155.043 145.221,154.295 144.685,153.791 144.300 C 153.286 143.915,152.677 143.600,152.437 143.600 C 152.197 143.600,152.000 143.420,152.000 143.200 C 152.000 142.980,151.730 142.800,151.400 142.800 C 151.070 142.800,150.800 142.620,150.800 142.400 C 150.800 142.180,150.530 142.000,150.200 142.000 C 149.870 142.000,149.600 141.820,149.600 141.600 C 149.600 141.380,149.364 141.200,149.075 141.200 C 148.787 141.200,148.202 140.885,147.775 140.500 C 147.349 140.115,146.505 139.545,145.900 139.232 C 145.295 138.920,144.800 138.515,144.800 138.332 C 144.800 138.150,144.631 138.000,144.425 138.000 C 144.218 138.000,140.347 135.570,135.822 132.600 C 131.297 129.630,127.416 127.200,127.197 127.200 C 126.979 127.200,126.800 127.050,126.800 126.868 C 126.800 126.685,126.305 126.280,125.700 125.968 C 125.095 125.655,124.251 125.085,123.825 124.700 C 123.398 124.315,122.828 124.000,122.558 124.000 C 122.288 124.000,122.007 123.843,121.933 123.651 C 121.860 123.459,120.090 122.207,118.000 120.868 C 115.910 119.529,113.722 118.066,113.137 117.617 C 112.552 117.168,111.974 116.800,111.852 116.800 C 111.730 116.800,110.177 115.810,108.400 114.600 C 106.623 113.390,105.030 112.400,104.860 112.400 C 104.690 112.400,104.202 112.085,103.775 111.700 C 103.349 111.315,102.508 110.746,101.907 110.436 C 101.305 110.126,100.458 109.541,100.023 109.136 C 99.589 108.731,99.144 108.400,99.034 108.400 C 98.924 108.400,94.620 105.610,89.470 102.200 C 84.320 98.790,79.902 96.000,79.653 96.000 C 79.404 96.000,79.200 95.850,79.200 95.668 C 79.200 95.485,78.705 95.080,78.100 94.768 C 77.495 94.455,76.651 93.885,76.225 93.500 C 75.798 93.115,75.213 92.800,74.925 92.800 C 74.636 92.800,74.400 92.642,74.400 92.449 C 74.400 92.255,73.860 91.873,73.200 91.600 C 72.540 91.327,72.000 90.945,72.000 90.751 C 72.000 90.558,71.730 90.400,71.400 90.400 C 71.070 90.400,70.800 90.220,70.800 90.000 C 70.800 89.780,70.530 89.600,70.200 89.600 C 69.870 89.600,69.600 89.420,69.600 89.200 C 69.600 88.980,69.330 88.800,69.000 88.800 C 68.670 88.800,68.400 88.620,68.400 88.400 C 68.400 88.180,68.130 88.000,67.800 88.000 C 67.470 88.000,67.200 87.820,67.200 87.600 C 67.200 87.380,66.930 87.200,66.600 87.200 C 66.270 87.200,66.000 87.020,66.000 86.800 C 66.000 86.580,65.809 86.400,65.576 86.400 C 65.344 86.400,63.319 85.164,61.076 83.653 C 53.227 78.362,43.956 72.400,43.580 72.400 C 43.371 72.400,43.200 72.250,43.200 72.068 C 43.200 71.885,42.708 71.480,42.106 71.168 C 41.020 70.604,39.997 69.861,38.984 68.900 C 38.370 68.317,38.000 68.258,38.000 68.744 M234.400 110.400 C 234.400 136.981,234.541 152.400,234.784 152.400 C 234.995 152.400,240.260 149.043,246.484 144.941 C 252.708 140.838,259.330 136.492,261.200 135.283 C 267.642 131.117,277.629 124.584,287.313 118.200 C 296.969 111.834,299.940
   109.887,319.800 96.910 C 325.520 93.172,334.520 87.272,339.800 83.798 C 345.080 80.324,351.200
    76.313,353.400 74.885 C 355.600 73.456,358.337 71.679,359.482 70.934 C 360.628 70.190,361.681 
    69.393,361.822 69.164 C 362.241 68.486,361.687 68.258,361.064 68.852 C 360.012 69.855,359.000 
    70.594,357.894 71.168 C 357.292 71.480,356.800 71.885,356.800 72.068 C 356.800 72.250,356.631 
    72.400,356.424 72.400 C 356.217 72.400,350.451 76.090,343.610 80.600 C 336.769 85.110,330.998
     88.800,330.786 88.800 C 330.574 88.800,330.400 88.980,330.400 89.200 C 330.400 89.420,330.130 
     89.600,329.800 89.600 C 329.470 89.600,329.200 89.780,329.200 90.000 C 329.200 90.220,328.930 
     90.400,328.600 90.400 C 328.270 90.400,328.000 90.550,328.000 90.732 C 328.000 90.915,327.505 91.320,326.900 91.632 C 326.295 91.945,325.451 92.515,325.025 92.900 C 324.598 93.285,324.013 93.600,323.725 93.600 C 323.436 93.600,323.200 93.780,323.200 94.000 C 323.200 94.220,322.964 94.400,322.675 94.400 C 322.387 94.400,321.764 94.760,321.292 95.200 C 320.820 95.640,320.320 96.000,320.181 96.000 C 320.043 96.000,314.355 99.690,307.542 104.200 C 300.729 108.710,295.084 112.400,294.997 112.400 C 294.910 112.400,292.577 113.930,289.812 115.800 C 287.046 117.670,284.608 119.200,284.392 119.200 C 284.176 119.200,284.000 119.380,284.000 119.600 C 284.000 119.820,283.730 120.000,283.400 120.000 C 283.070 120.000,282.800 120.180,282.800 120.400 C 282.800 120.620,282.564 120.800,282.275 120.800 C 281.987 120.800,281.402 121.115,280.975 121.500 C 280.549 121.885,279.705 122.455,279.100 122.768 C 278.495 123.080,278.000 123.485,278.000 123.668 C 278.000 123.850,277.764 124.000,277.475 124.000 C 277.187 124.000,276.602 124.315,276.175 124.700 C 275.749 125.085,274.905 125.655,274.300 125.968 C 273.695 126.280,273.200 126.685,273.200 126.868 C 273.200 127.050,273.013 127.200,272.784 127.200 C 272.556 127.200,267.323 130.530,261.157 134.600 C 254.991 138.670,249.778 142.000,249.573 142.000 C 249.368 142.000,249.200 142.150,249.200 142.332 C 249.200 142.515,248.705 142.920,248.100 143.232 C 247.495 143.545,246.651 144.115,246.225 144.500 C 245.798 144.885,245.295 145.200,245.108 145.200 C 244.920 145.200,244.549 145.382,244.283 145.605 C 243.059 146.630,235.785 151.200,235.377 151.200 C 235.280 151.200,235.200 132.570,235.200 109.800 C 235.200 82.467,235.064 68.400,234.800 68.400 C 234.536 68.400,234.400 82.667,234.400 110.400 M0.060 93.300 C 0.027 94.125,0.168 94.800,0.373 94.800 C 0.579 94.800,5.801 98.130,11.979 102.200 C 18.156 106.270,23.388 109.600,23.605 109.600 C 23.822 109.600,24.000 109.750,24.000 109.932 C 24.000 110.115,24.495 110.520,25.100 110.832 C 25.705 111.145,26.549 111.715,26.975 112.100 C 27.402 112.485,27.987 112.800,28.275 112.800 C 28.564 112.800,28.800 112.950,28.800 113.132 C 28.800 113.315,29.295 113.720,29.900 114.032 C 30.505 114.345,31.318 114.886,31.707 115.236 C 32.095 115.586,32.901 116.126,33.498 116.436 C 34.462 116.938,41.580 121.520,42.600 122.296 C 42.820 122.463,43.495 122.855,44.100 123.168 C 44.705 123.480,45.200 123.885,45.200 124.068 C 45.200 124.250,45.369 124.400,45.576 124.400 C 45.783 124.400,51.528 128.090,58.342 132.600 C 65.156 137.110,70.927 140.800,71.166 140.800 C 71.405 140.800,71.600 140.980,71.600 141.200 C 71.600 141.420,71.870 141.600,72.200 141.600 C 72.530 141.600,72.800 141.780,72.800 142.000 C 72.800 142.220,73.070 142.400,73.400 142.400 C 73.730 142.400,74.000 142.568,74.000 142.773 C 74.000 142.978,74.338 143.253,74.751 143.384 C 75.164 143.516,76.019 144.067,76.651 144.611 C 77.283 145.154,78.025 145.599,78.300 145.600 C 78.575 145.600,78.800 145.780,78.800 146.000 C 78.800 146.220,79.036 146.400,79.325 146.400 C 79.613 146.400,80.198 146.715,80.625 147.100 C 81.051 147.485,81.895 148.055,82.500 148.368 C 83.105 148.680,83.600 149.085,83.600 149.268 C 83.600 149.450,83.778 149.600,83.996 149.600 C 84.213 149.600,89.568 153.016,95.896 157.192 L 107.400 164.784 53.700 164.792 C 18.172 164.797,0.000 164.935,0.000 165.200 C 0.000 165.465,18.475 165.600,54.624 165.600 C 84.667 165.600,109.160 165.459,109.053 165.286 C 108.946 165.113,105.156 162.548,100.631 159.586 C 96.106 156.624,86.058 150.014,78.302 144.898 C 70.546 139.781,62.982 134.831,61.492 133.898 C 60.003 132.964,51.407 127.340,42.389 121.400 C 33.371 115.460,23.070 108.696,19.497 106.369 C 0.190 93.797,0.454 93.982,0.283 92.867 C 0.158 92.049,0.106 92.150,0.060 93.300 M399.600 93.200 C 399.600 93.860,399.424 94.400,399.208 94.400 C 398.992 94.400,396.152 96.155,392.896 98.300 C 389.639 100.445,383.663 104.360,379.615 107.000 C 375.566 109.640,368.420 114.320,363.735 117.400 C 355.268 122.965,346.186 128.919,323.600 143.708 C 299.015 159.806,291.208 165.009,291.204 165.300 C 291.202 165.465,315.680 165.600,345.600 165.600 C 381.600 165.600,400.000 165.465,400.000 165.200 C 400.000 164.935,381.831 164.799,346.300 164.796 L 292.600 164.792 299.600 160.187 C 303.450 157.654,308.575 154.281,310.989 152.691 C 313.402 151.101,315.659 149.685,316.003 149.545 C 316.346 149.404,316.869 148.999,317.163 148.645 C 317.457 148.290,317.946 148.000,318.249 148.000 C 318.552 148.000,318.800 147.820,318.800 147.600 C 318.800 147.380,319.036 147.200,319.325 147.200 C 319.613 147.200,320.198 146.885,320.625 146.500 C 321.051 146.115,321.895 145.545,322.500 145.232 C 323.105 144.920,323.600 144.515,323.600 144.332 C 323.600 144.150,323.836 144.000,324.125 144.000 C 324.413 144.000,324.998 143.685,325.425 143.300 C 325.851 142.915,326.695 142.345,327.300 142.032 C 327.905 141.720,328.400 141.315,328.400 141.132 C 328.400 140.950,328.595 140.800,328.834 140.800 C 329.073 140.800,334.844 137.110,341.658 132.600 C 348.472 128.090,354.217 124.400,354.424 124.400 C 354.631 124.400,354.800 124.250,354.800 124.068 C 354.800 123.885,355.295 123.480,355.900 123.168 C 356.505 122.855,358.402 121.655,360.115 120.500 C 361.829 119.345,363.382 118.400,363.566 118.400 C 363.751 118.400,364.129 118.127,364.406 117.793 C 364.683 117.459,365.491 116.910,366.201 116.573 C 366.911 116.236,367.831 115.654,368.246 115.280 C 368.661 114.906,369.495 114.345,370.100 114.032 C 370.705 113.720,371.200 113.315,371.200 113.132 C 371.200 112.950,371.436 112.800,371.725 112.800 C 372.013 112.800,372.598 112.485,373.025 112.100 C 373.451 111.715,374.295 111.145,374.900 110.832 C 375.505 110.520,376.000 110.115,376.000 109.932 C 376.000 109.750,376.173 109.600,376.385 109.600 C 376.597 109.600,381.017 106.810,386.206 103.400 C 391.396 99.990,395.730 97.200,395.838 97.200 C 395.945 97.200,396.420 96.840,396.892 96.400 C 397.364 95.960,397.987 95.600,398.275 95.600 C 398.564 95.600,398.800 95.420,398.800 95.200 C 398.800 94.980,399.070 94.800,399.400 94.800 C 399.819 94.800,400.000 94.378,400.000 93.400 C 400.000 92.630,399.910 92.000,399.800 92.000 C 399.690 92.000,399.600 92.540,399.600 93.200 M0.000 234.800 C 0.000 235.065,18.174 235.204,53.700 235.211 C 104.469 235.221,107.340 235.259,106.300 235.903 C 105.695 236.278,105.200 236.724,105.200 236.893 C 105.200 237.062,105.032 237.200,104.828 237.200 C 104.623 237.200,99.405 240.530,93.232 244.600 C 87.059 248.670,81.842 252.000,81.638 252.000 C 81.434 252.000,81.207 252.145,81.133 252.323 C 80.941 252.791,77.335 255.200,76.828 255.200 C 76.593 255.200,76.400 255.358,76.400 255.551 C 76.400 255.745,75.860 256.127,75.200 256.400 C 74.540 256.673,74.000 257.055,74.000 257.249 C 74.000 257.442,73.730 257.600,73.400 257.600 C 73.070 257.600,72.800 257.780,72.800 258.000 C 72.800 258.220,72.530 258.400,72.200 258.400 C 71.870 258.400,71.600 258.580,71.600 258.800 C 71.600 259.020,71.330 259.200,71.000 259.200 C 70.670 259.200,70.400 259.380,70.400 259.600 C 70.400 259.820,70.130 260.000,69.800 260.000 C 69.470 260.000,69.200 260.180,69.200 260.400 C 69.200 260.620,69.020 260.800,68.801 260.800 C 68.582 260.800,66.587 262.015,64.368 263.500 C 62.149 264.985,60.041 266.380,59.683 266.600 C 59.326 266.820,55.564 269.295,51.324 272.100 C 47.084 274.905,43.432 277.200,43.207 277.200 C 42.983 277.200,42.800 277.342,42.800 277.515 C 42.800 277.689,41.765 278.452,40.500 279.212 C 39.235 279.971,38.020 280.733,37.800 280.905 C 37.580 281.078,35.600 282.383,33.400 283.806 C 31.200 285.228,29.182 286.575,28.915 286.798 C 28.648 287.021,27.973 287.412,27.415 287.666 C 26.857 287.920,26.400 288.280,26.400 288.464 C 26.400 288.649,26.164 288.800,25.875 288.800 C 25.587 288.800,25.002 289.115,24.575 289.500 C 24.149 289.885,23.305 290.455,22.700 290.768 C 22.095 291.080,21.600 291.485,21.600 291.668 C 21.600 291.850,21.364 292.000,21.075 292.000 C 20.787 292.000,20.164 292.360,19.692 292.800 C 19.220 293.240,18.735 293.600,18.615 293.600 C 18.495 293.600,14.426 296.210,9.573 299.400 C 4.719 302.590,0.580 305.200,0.374 305.200 C 0.168 305.200,0.027 305.875,0.060 306.700 C 0.106 307.846,0.158 307.949,0.283 307.135 C 0.413 306.285,1.347 305.487,4.923 303.171 C 13.963 297.316,36.533 282.534,73.000 258.587 C 97.342 242.601,102.006 239.551,105.522 237.318 C 107.325 236.173,108.800 235.048,108.800 234.818 C 108.800 234.529,91.959 234.400,54.400 234.400 C 18.400 234.400,0.000 234.535,0.000 234.800 M291.200 234.747 C 291.200 235.072,293.283 236.596,295.630 237.989 C 296.197 238.325,298.982 240.130,301.819 242.000 C 304.657 243.870,311.348 248.280,316.689 251.800 C 322.030 255.320,329.325 260.109,332.900 262.443 C 338.366 266.011,358.089 278.928,382.600 294.993 C 385.680 297.011,390.754 300.328,393.876 302.363 C 398.503 305.379,399.583 306.261,399.717 307.132 C 399.842 307.953,399.894 307.853,399.940 306.700 C 399.973 305.875,399.832 305.200,399.626 305.200 C 399.420 305.200,395.281 302.590,390.427 299.400 C 385.574 296.210,381.422 293.600,381.201 293.600 C 380.981 293.600,380.800 293.450,380.800 293.268 C 380.800 293.085,380.305 292.680,379.700 292.368 C 379.095 292.055,378.251 291.485,377.825 291.100 C 377.398 290.715,376.813 290.400,376.525 290.400 C 376.236 290.400,376.000 290.250,376.000 290.068 C 376.000 289.885,375.505 289.480,374.900 289.168 C 374.295 288.855,373.451 288.285,373.025 287.900 C 372.598 287.515,372.013 287.200,371.725 287.200 C 371.436 287.200,371.200 287.050,371.200 286.868 C 371.200 286.685,370.705 286.280,370.100 285.968 C 369.495 285.656,368.910 285.311,368.800 285.201 C 368.400 284.799,366.027 283.200,365.832 283.200 C 365.721 283.200,364.229 282.255,362.515 281.100 C 360.802 279.945,358.905 278.745,358.300 278.432 C 357.695 278.120,357.200 277.715,357.200 277.532 C 357.200 277.350,356.964 277.200,356.675 277.200 C 356.387 277.200,355.764 276.840,355.292 276.400 C 354.820 275.960,354.349 275.600,354.245 275.600 C 354.141 275.600,348.468 271.910,341.639 267.400 C 334.809 262.890,329.037 259.200,328.811
      259.200 C 328.585 259.200,328.400 259.050,328.400 258.868 C 328.400 258.685,327.905 258.280,327.300 257.968 C 326.695 257.655,325.851 257.085,325.425 256.700 C 324.998 256.315,324.496 256.000,324.308 256.000 C 324.120 256.000,323.580 255.640,323.108 255.200 C 322.636 254.760,322.013 254.400,321.725 254.400 C 321.436 254.400,321.200 254.220,321.200 254.000 C 321.200 253.780,320.964 253.600,320.675 253.600 C 320.387 253.600,319.764 253.240,319.292 252.800 C 318.820 252.360,318.352 252.000,318.254 252.000 C 318.049 252.000,310.456 247.023,309.717 246.404 C 309.451 246.182,309.134 246.000,309.012 246.000 C 308.891 246.000,305.149 243.570,300.697 240.600 L 292.603 235.200 346.302 235.200 C 381.834 235.200,400.000 235.065,400.000 234.800 C 400.000 234.535,381.600 234.400,345.600 234.400 C 315.158 234.400,291.200 234.553,291.200 234.747 M156.944 252.838 C 144.205 261.238,133.174 268.486,124.800 273.957 C 120.510 276.760,109.440 284.011,100.200 290.071 C 90.960 296.131,79.260 303.788,74.200 307.087 C 42.987 327.438,37.689 331.023,38.148 331.482 C 38.311 331.644,38.569 331.581,38.722 331.342 C 38.969 330.956,49.359 324.018,57.600 318.737 C 59.250 317.679,60.780 316.676,61.000 316.507 C 61.220 316.338,61.895 315.945,62.500 315.632 C 63.105 315.320,63.600 314.915,63.600 314.732 C 63.600 314.550,63.836 314.400,64.125 314.400 C 64.413 314.400,64.998 314.085,65.425 313.700 C 65.851 313.315,66.695 312.745,67.300 312.432 C 67.905 312.120,68.400 311.715,68.400 311.532 C 68.400 311.350,68.670 311.200,69.000 311.200 C 69.330 311.200,69.600 311.020,69.600 310.800 C 69.600 310.580,69.870 310.400,70.200 310.400 C 70.530 310.400,70.800 310.220,70.800 310.000 C 70.800 309.780,71.070 309.600,71.400 309.600 C 71.730 309.600,72.000 309.420,72.000 309.200 C 72.000 308.980,72.183 308.800,72.408 308.800 C 72.632 308.800,78.134 305.290,84.636 301.000 C 91.137 296.710,96.541 293.200,96.645 293.200 C 96.748 293.200,97.220 292.840,97.692 292.400 C 98.164 291.960,98.787 291.600,99.075 291.600 C 99.364 291.600,99.600 291.420,99.600 291.200 C 99.600 290.980,99.782 290.800,100.005 290.800 C 100.362 290.800,107.418 286.246,108.685 285.198 C 108.952 284.977,109.627 284.588,110.185 284.334 C 110.743 284.080,111.200 283.720,111.200 283.536 C 111.200 283.351,111.436 283.200,111.725 283.200 C 112.013 283.200,112.636 282.840,113.108 282.400 C 113.580 281.960,114.071 281.600,114.199 281.600 C 114.582 281.600,121.789 276.691,121.933 276.332 C 122.007 276.150,122.223 276.000,122.414 276.000 C 122.605 276.000,125.925 273.930,129.791 271.400 C 133.658 268.870,136.982 266.800,137.178 266.800 C 137.373 266.800,137.593 266.655,137.667 266.477 C 137.859 266.009,141.465 263.600,141.972 263.600 C 142.207 263.600,142.400 263.450,142.400 263.268 C 142.400 263.085,142.895 262.680,143.500 262.368 C 144.105 262.055,144.949 261.485,145.375 261.100 C 145.802 260.715,146.387 260.400,146.675 260.400 C 146.964 260.400,147.200 260.220,147.200 260.000 C 147.200 259.780,147.470 259.600,147.800 259.600 C 148.130 259.600,148.400 259.420,148.400 259.200 C 148.400 258.980,148.670 258.800,149.000 258.800 C 149.330 258.800,149.600 258.620,149.600 258.400 C 149.600 258.180,149.836 258.000,150.125 258.000 C 150.413 258.000,151.036 257.640,151.508 257.200 C 151.980 256.760,152.481 256.400,152.621 256.400 C 152.762 256.400,154.313 255.410,156.070 254.200 C 157.827 252.990,159.349 252.000,159.454 252.000 C 159.558 252.000,160.728 251.264,162.053 250.364 C 163.378 249.464,164.536 248.803,164.627 248.894 C 164.718 248.985,164.798 267.532,164.804 290.111 C 164.811 316.523,164.955 331.248,165.207 331.405 C 165.463 331.563,165.600 317.013,165.600 289.624 C 165.600 265.331,165.450 247.600,165.244 247.600 C 165.048 247.600,161.313 249.957,156.944 252.838 M234.400 289.600 C 234.400 317.333,234.536 331.600,234.800 331.600 C 235.064 331.600,235.200 317.533,235.200 290.200 C 235.200 267.430,235.300 248.800,235.422 248.800 C 235.544 248.800,236.704 249.520,238.000 250.400 C 239.296 251.280,240.449 252.000,240.563 252.000 C 240.676 252.000,242.223 252.990,244.000 254.200 C 245.777 255.410,247.321 256.400,247.432 256.400 C 247.543 256.400,248.020 256.760,248.492 257.200 C 248.964 257.640,249.587 258.000,249.875 258.000 C 250.164 258.000,250.400 258.180,250.400 258.400 C 250.400 258.620,250.670 258.800,251.000 258.800 C 251.330 258.800,251.600 258.980,251.600 259.200 C 251.600 259.420,251.870 259.600,252.200 259.600 C 252.530 259.600,252.800 259.780,252.800 260.000 C 252.800 260.220,253.036 260.400,253.325 260.400 C 253.613 260.400,254.236 260.760,254.708 261.200 C 255.180 261.640,255.652 262.000,255.758 262.000 C 255.863 262.000,260.182 264.790,265.355 268.200 C 270.529 271.610,274.951 274.400,275.181 274.400 C 275.412 274.400,275.600 274.550,275.600 274.732 C 275.600 274.915,276.095 275.320,276.700 275.632 C 277.305 275.945,278.149 276.515,278.575 276.900 C 279.002 277.285,279.587 277.600,279.875 277.600 C 280.164 277.600,280.400 277.750,280.400 277.932 C 280.400 278.115,280.895 278.520,281.500 278.832 C 282.105 279.145,282.918 279.686,283.307 280.036 C 283.695 280.386,284.505 280.926,285.107 281.236 C 285.708 281.546,286.549 282.115,286.975 282.500 C 287.402 282.885,287.883 283.200,288.045 283.200 C 288.207 283.200,290.468 284.610,293.070 286.332 C 312.969 299.510,324.797 307.200,325.166 307.200 C 325.404 307.200,325.600 307.358,325.600 307.551 C 325.600 307.745,326.140 308.127,326.800 308.400 C 327.460 308.673,328.000 309.055,328.000 309.249 C 328.000 309.442,328.270 309.600,328.600 309.600 C 328.930 309.600,329.200 309.780,329.200 310.000 C 329.200 310.220,329.470 310.400,329.800 310.400 C 330.130 310.400,330.400 310.580,330.400 310.800 C 330.400 311.020,330.670 311.200,331.000 311.200 C 331.330 311.200,331.600 311.380,331.600 311.600 C 331.600 311.820,331.870 312.000,332.200 312.000 C 332.530 312.000,332.800 312.180,332.800 312.400 C 332.800 312.620,333.070 312.800,333.400 312.800 C 333.730 312.800,334.000 312.980,334.000 313.200 C 334.000 313.420,334.270 313.600,334.600 313.600 C 334.930 313.600,335.200 313.780,335.200 314.000 C 335.200 314.220,335.389 314.400,335.619 314.400 C 335.850 314.400,337.605 315.460,339.519 316.756 C 346.257 321.317,356.051 327.600,356.424 327.600 C 356.631 327.600,356.800 327.750,356.800 327.932 C 356.800 328.115,357.292 328.520,357.894 328.832 C 359.000 329.406,360.012 330.145,361.064 331.148 C 361.380 331.449,361.753 331.581,361.892 331.441 C 362.275 331.059,361.990 330.848,353.918 325.529 C 349.803 322.818,339.750 316.190,331.577 310.800 C 323.404 305.410,316.103 300.640,315.351 300.200 C 314.600 299.760,310.434 297.061,306.093 294.203 C 265.663 267.583,267.868 269.030,267.448 268.850 C 267.254 268.767,260.209 264.148,251.792 258.587 C 236.951 248.781,235.106 247.600,234.626 247.600 C 234.502 247.600,234.400 266.500,234.400 289.600 " stroke="none" fill="#5f61a7" fill-rule="evenodd"></path><path id="path3" d="M38.800 68.732 C 38.800 68.915,39.250 69.306,39.800 69.600 C 40.350 69.894,40.800 70.285,40.800 70.468 C 40.800 70.650,41.036 70.800,41.325 70.800 C 41.613 70.800,42.236 71.160,42.708 71.600 C 43.180 72.040,43.655 72.400,43.763 72.400 C 43.988 72.400,54.997 79.555,61.076 83.653 C 63.319 85.164,65.344 86.400,65.576 86.400 C 65.809 86.400,66.000 86.580,66.000 86.800 C 66.000 87.020,66.270 87.200,66.600 87.200 C 66.930 87.200,67.200 87.380,67.200 87.600 C 67.200 87.820,67.470 88.000,67.800 88.000 C 68.130 88.000,68.400 88.180,68.400 88.400 C 68.400 88.620,68.670 88.800,69.000 88.800 C 69.330 88.800,69.600 88.980,69.600 89.200 C 69.600 89.420,69.870 89.600,70.200 89.600 C 70.530 89.600,70.800 89.780,70.800 90.000 C 70.800 90.220,71.070 90.400,71.400 90.400 C 71.730 90.400,72.000 90.558,72.000 90.751 C 72.000 90.945,72.540 91.327,73.200 91.600 C 73.860 91.873,74.400 92.255,74.400 92.449 C 74.400 92.642,74.636 92.800,74.925 92.800 C 75.213 92.800,75.798 93.115,76.225 93.500 C 76.651 93.885,77.495 94.455,78.100 94.768 C 78.705 95.080,79.200 95.485,79.200 95.668 C 79.200 95.850,79.404 96.000,79.653 96.000 C 79.902 96.000,84.320 98.790,89.470 102.200 C 94.620 105.610,98.924 108.400,99.034 108.400 C 99.144 108.400,99.589 108.731,100.023 109.136 C 100.458 109.541,101.305 110.126,101.907 110.436 C 102.508 110.746,103.349 111.315,103.775 111.700 C 104.202 112.085,104.690 112.400,104.860 112.400 C 105.030 112.400,106.623 113.390,108.400 114.600 C 110.177 115.810,111.730 116.800,111.852 116.800 C 111.974 116.800,112.552 117.168,113.137 117.617 C 113.722 118.066,115.910 119.529,118.000 120.868 C 120.090 122.207,121.860 123.459,121.933 123.651 C 122.007 123.843,122.288 124.000,122.558 124.000 C 122.828 124.000,123.398 124.315,123.825 124.700 C 124.251 125.085,125.095 125.655,125.700 125.968 C 126.305 126.280,126.800 126.685,126.800 126.868 C 126.800 127.050,126.979 127.200,127.197 127.200 C 127.416 127.200,131.297 129.630,135.822 132.600 C 140.347 135.570,144.218 138.000,144.425 138.000 C 144.631 138.000,144.800 138.150,144.800 138.332 C 144.800 138.515,145.295 138.920,145.900 139.232 C 146.505 139.545,147.349 140.115,147.775 140.500 C 148.202 140.885,148.787 141.200,149.075 141.200 C 149.364 141.200,149.600 141.380,149.600 141.600 C 149.600 141.820,149.870 142.000,150.200 142.000 C 150.530 142.000,150.800 142.180,150.800 142.400 C 150.800 142.620,151.070 142.800,151.400 142.800 C 151.730 142.800,152.000 142.980,152.000 143.200 C 152.000 143.420,152.197 143.600,152.437 143.600 C 152.677 143.600,153.286 143.915,153.791 144.300 C 154.295 144.685,155.043 145.221,155.454 145.492 C 155.864 145.762,157.370 146.755,158.800 147.698 C 161.642 149.573,164.346 151.200,164.619 151.200 C 164.715 151.200,164.839 132.570,164.896 109.800 L 165.000 68.400 101.900 68.400 C 67.195 68.400,38.800 68.550,38.800 68.732 M235.200 109.800 C 235.200 132.570,235.280 151.200,235.377 151.200 C 235.739 151.200,242.574 146.943,244.200 145.705 C 244.420 145.537,245.095 145.145,245.700 144.832 C 246.305 144.520,246.800 144.115,246.800 143.932 C 246.800 143.750,247.036 143.600,247.325 143.600 C 247.613 
      143.600,248.236 143.240,248.708 142.800 C 249.180 142.360,249.652 142.000,249.756 142.000 C 249.861 142.000,254.991 138.670,261.157 134.600 C 267.323 130.530,272.556 127.200,272.784 127.200 C 273.013 127.200,273.200 127.050,273.200 126.868 C 273.200 126.685,273.695 126.280,274.300 125.968 C 274.905 125.655,275.749 125.085,276.175 124.700 C 276.602 124.315,277.187 124.000,277.475 124.000 C 277.764 124.000,278.000 123.850,278.000 123.668 C 278.000 123.485,278.495 123.080,279.100 122.768 C 279.705 122.455,280.549 121.885,280.975 121.500 C 281.402 121.115,281.987 120.800,282.275 120.800 C 282.564 120.800,282.800 120.620,282.800 120.400 C 282.800 120.180,283.070 120.000,283.400 120.000 C 283.730 120.000,284.000 119.820,284.000 119.600 C 284.000 119.380,284.176 119.200,284.392 119.200 C 284.608 119.200,287.046 117.670,289.812 115.800 C 292.577 113.930,294.910 112.400,294.997 112.400 C 295.084 112.400,300.729 108.710,307.542 104.200 C 314.355 99.690,320.043 96.000,320.181 96.000 C 320.320 96.000,320.820 95.640,321.292 95.200 C 321.764 94.760,322.387 94.400,322.675 94.400 C 322.964 94.400,323.200 94.220,323.200 94.000 C 323.200 93.780,323.436 93.600,323.725 93.600 C 324.013 93.600,324.598 93.285,325.025 92.900 C 325.451 92.515,326.295 91.945,326.900 91.632 C 327.505 91.320,328.000 90.915,328.000 90.732 C 328.000 90.550,328.270 90.400,328.600 90.400 C 328.930 90.400,329.200 90.220,329.200 90.000 C 329.200 89.780,329.470 89.600,329.800 89.600 C 330.130 89.600,330.400 89.420,330.400 89.200 C 330.400 88.980,330.574 88.800,330.786 88.800 C 330.998 88.800,336.769 85.110,343.610 80.600 C 350.451 76.090,356.135 72.400,356.241 72.400 C 356.347 72.400,356.820 72.040,357.292 71.600 C 357.764 71.160,358.387 70.800,358.675 70.800 C 358.964 70.800,359.200 70.650,359.200 70.468 C 359.200 70.285,359.650 69.894,360.200 69.600 C 360.750 69.306,361.200 68.915,361.200 68.732 C 361.200 68.550,332.850 68.400,298.200 68.400 L 235.200 68.400 235.200 109.800 M0.000 129.800 L 0.000 164.800 53.700 164.792 L 107.400 164.784 95.896 157.192 C 89.568 153.016,84.213 149.600,83.996 149.600 C 83.778 149.600,83.600 149.450,83.600 149.268 C 83.600 149.085,83.105 148.680,82.500 148.368 C 81.895 148.055,81.051 147.485,80.625 147.100 C 80.198 146.715,79.613 146.400,79.325 146.400 C 79.036 146.400,78.800 146.220,78.800 146.000 C 78.800 145.780,78.575 145.600,78.300 145.600 C 78.025 145.599,77.283 145.154,76.651 144.611 C 76.019 144.067,75.164 143.516,74.751 143.384 C 74.338 143.253,74.000 142.978,74.000 142.773 C 74.000 142.568,73.730 142.400,73.400 142.400 C 73.070 142.400,72.800 142.220,72.800 142.000 C 72.800 141.780,72.530 141.600,72.200 141.600 C 71.870 141.600,71.600 141.420,71.600 141.200 C 71.600 140.980,71.405 140.800,71.166 140.800 C 70.927 140.800,65.156 137.110,58.342 132.600 C 51.528 128.090,45.783 124.400,45.576 124.400 C 45.369 124.400,45.200 124.250,45.200 124.068 C 45.200 123.885,44.705 123.480,44.100 123.168 C 43.495 122.855,42.820 122.463,42.600 122.296 C 41.580 121.520,34.462 116.938,33.498 116.436 C 32.901 116.126,32.095 115.586,31.707 115.236 C 31.318 114.886,30.505 114.345,29.900 114.032 C 29.295 113.720,28.800 113.315,28.800 113.132 C 28.800 112.950,28.564 112.800,28.275 112.800 C 27.987 112.800,27.402 112.485,26.975 112.100 C 26.549 111.715,25.705 111.145,25.100 110.832 C 24.495 110.520,24.000 110.115,24.000 109.932 C 24.000 109.750,23.822 109.600,23.605 109.600 C 23.388 109.600,18.156 106.270,11.979 102.200 C 5.801 98.130,0.579 94.800,0.373 94.800 C 0.145 94.800,0.000 108.390,0.000 129.800 M398.800 95.200 C 398.800 95.420,398.564 95.600,398.275 95.600 C 397.987 95.600,397.364 95.960,396.892 96.400 C 396.420 96.840,395.945 97.200,395.838 97.200 C 395.730 97.200,391.396 99.990,386.206 103.400 C 381.017 106.810,376.597 109.600,376.385 109.600 C 376.173 109.600,376.000 109.750,376.000 109.932 C 376.000 110.115,375.505 110.520,374.900 110.832 C 374.295 111.145,373.451 111.715,373.025 112.100 C 372.598 112.485,372.013 112.800,371.725 112.800 C 371.436 112.800,371.200 112.950,371.200 113.132 C 371.200 113.315,370.705 113.720,370.100 114.032 C 369.495 114.345,368.661 114.906,368.246 115.280 C 367.831 115.654,366.911 116.236,366.201 116.573 C 365.491 116.910,364.683 117.459,364.406 117.793 C 364.129 118.127,363.751 118.400,363.566 118.400 C 363.382 118.400,361.829 119.345,360.115 120.500 C 358.402 121.655,356.505 122.855,355.900 123.168 C 355.295 123.480,354.800 123.885,354.800 124.068 C 354.800 124.250,354.631 124.400,354.424 124.400 C 354.217 124.400,348.472 128.090,341.658 132.600 C 334.844 137.110,329.073 140.800,328.834 140.800 C 328.595 140.800,328.400 140.950,328.400 141.132 C 328.400 141.315,327.905 141.720,327.300 142.032 C 326.695 142.345,325.851 142.915,325.425 143.300 C 324.998 143.685,324.413 144.000,324.125 144.000 C 323.836 144.000,323.600 144.150,323.600 144.332 C 323.600 144.515,323.105 144.920,322.500 145.232 C 321.895 145.545,321.051 146.115,320.625 146.500 C 320.198 146.885,319.613 147.200,319.325 147.200 C 319.036 147.200,318.800 147.380,318.800 147.600 C 318.800 147.820,318.552 148.000,318.249 148.000 C 317.946 148.000,317.457 148.290,317.163 148.645 C 316.869 148.999,316.346 149.404,316.003 149.545 C 315.659 149.685,313.402 151.101,310.989 152.691 C 308.575 154.281,303.450 157.654,299.600 160.187 L 292.600 164.792 346.300 164.796 L 400.000 164.800 400.000 129.800 C 400.000 98.956,399.929 94.800,399.400 94.800 C 399.070 94.800,398.800 94.980,398.800 95.200 M0.000 270.200 C 0.000 291.655,0.145 305.200,0.374 305.200 C 0.580 305.200,4.719 302.590,9.573 299.400 C 14.426 296.210,18.578 293.600,18.799 293.600 C 19.019 293.600,19.200 293.450,19.200 293.268 C 19.200 293.085,19.695 292.680,20.300 292.368 C 20.905 292.055,21.749 291.485,22.175 291.100 C 22.602 290.715,23.104 290.400,23.292 290.400 C 23.480 290.400,24.020 290.040,24.492 289.600 C 24.964 289.160,25.587 288.800,25.875 288.800 C 26.164 288.800,26.400 288.649,26.400 288.464 C 26.400 288.280,26.857 287.920,27.415 287.666 C 27.973 287.412,28.648 287.021,28.915 286.798 C 29.182 286.575,31.200 285.228,33.400 283.806 C 35.600 282.383,37.580 281.078,37.800 280.905 C 38.020 280.733,39.235 279.971,40.500 279.212 C 41.765 278.452,42.800 277.689,42.800 277.515 C 42.800 277.342,42.983 277.200,43.207 277.200 C 43.432 277.200,47.084 274.905,51.324 272.100 C 55.564 269.295,59.326 266.820,59.683 266.600 C 60.041 266.380,62.149 264.985,64.368 263.500 C 66.587 262.015,68.582 260.800,68.801 260.800 C 69.020 260.800,69.200 260.620,69.200 260.400 C 69.200 260.180,69.470 260.000,69.800 260.000 C 70.130 260.000,70.400 259.820,70.400 259.600 C 70.400 259.380,70.670 259.200,71.000 259.200 C 71.330 259.200,71.600 259.020,71.600 258.800 C 71.600 258.580,71.870 258.400,72.200 258.400 C 72.530 258.400,72.800 258.220,72.800 258.000 C 72.800 257.780,73.070 257.600,73.400 257.600 C 73.730 257.600,74.000 257.442,74.000 257.249 C 74.000 257.055,74.540 256.673,75.200 256.400 C 75.860 256.127,76.400 255.745,76.400 255.551 C 76.400 255.358,76.593 255.200,76.828 255.200 C 77.335 255.200,80.941 252.791,81.133 252.323 C 81.207 252.145,81.434 252.000,81.638 252.000 C 81.842 252.000,87.059 248.670,93.232 244.600 C 99.405 240.530,104.623 237.200,104.828 237.200 C 105.032 237.200,105.200 237.062,105.200 236.893 C 105.200 236.724,105.695 236.278,106.300 235.903 C 107.340 235.259,104.469 235.221,53.700 235.211 L 0.000 235.200 0.000 270.200 M300.697 240.600 C 305.149 243.570,308.891 246.000,309.012 246.000 C 309.134 246.000,309.451 246.182,309.717 246.404 C 310.456 247.023,318.049 252.000,318.254 252.000 C 318.352 252.000,318.820 252.360,319.292 252.800 C 319.764 253.240,320.387 253.600,320.675 253.600 C 320.964 253.600,321.200 253.780,321.200 254.000 C 321.200 254.220,321.436 254.400,321.725 254.400 C 322.013 254.400,322.598 254.715,323.025 255.100 C 323.451 255.485,324.295 256.055,324.900 256.368 C 325.505 256.680,326.000 257.085,326.000 257.268 C 326.000 257.450,326.236 257.600,326.525 257.600 C 326.813 257.600,327.436 257.960,327.908 258.400 C 328.380 258.840,328.869 259.200,328.994 259.200 C 329.119 259.200,334.809 262.890,341.639 267.400 C 348.468 271.910,354.223 275.600,354.428 275.600 C 354.633 275.600,354.800 275.750,354.800 275.932 C 354.800 276.115,355.295 276.520,355.900 276.832 C 356.505 277.145,357.349 277.715,357.775 278.100 C 358.202 278.485,358.690 278.800,358.860 278.800 C 359.030 278.800,360.623 279.790,362.400 281.000 C 364.177 282.210,365.721 283.200,365.832 283.200 C 366.027 283.200,368.400 284.799,368.800 285.201 C 368.910 285.311,369.495 285.656,370.100 285.968 C 370.705 286.280,371.200 286.685,371.200 286.868 C 371.200 287.050,371.436 287.200,371.725 287.200 C 372.013 287.200,372.598 287.515,373.025 287.900 C 373.451 288.285,374.295 288.855,374.900 289.168 C 375.505 289.480,376.000 289.885,376.000 290.068 C 376.000 290.250,376.236 290.400,376.525 290.400 C 376.813 290.400,377.398 290.715,377.825 291.100 C 378.251 291.485,379.095 292.055,379.700 292.368 C 380.305 292.680,380.800 293.085,380.800 293.268 C 380.800 293.450,380.981 293.600,381.201 293.600 C 381.422 293.600,385.574 296.210,390.427 299.400 C 395.281 302.590,399.420 305.200,399.626 305.200 C 399.855 305.200,400.000 291.655,400.000 270.200 L 400.000 235.200 346.302 235.200 L 292.603 235.200 300.697 240.600 M162.000 250.400 C 160.790 251.259,159.679 251.970,159.532 251.981 C 159.384 251.991,157.827 252.990,156.070 254.200 C 154.313 255.410,152.762 256.400,152.621 256.400 C 152.481 256.400,151.980 256.760,151.508 257.200 C 151.036 257.640,150.413 258.000,150.125 258.000 C 149.836 258.000,149.600 258.180,149.600 258.400 C 149.600 258.620,149.330 258.800,149.000 258.800 C 148.670 258.800,148.400 258.980,148.400 259.200 C 148.400 259.420,148.130 259.600,147.800 259.600 C 147.470 259.600,147.200 259.780,147.200 260.000 C 147.200 260.220,146.964 260.400,146.675 260.400 C 146.387 260.400,145.802 260.715,145.375 261.100 C 144.949 261.485,144.105 262.055,143.500 262.368 C 142.895 262.680,142.400 263.085,142.400 263.268 C 142.400 263.450,142.207 263.600,141.972 263.600 C 141.465 263.600,137.859 266.009,137.667 266.477 C 137.593 266.655,137.373 266.800,137.178 266.800 C 136.982 266.800,133.658 268.870,129.791 271.400 C 125.925 273.930,122.605 276.000,122.414 276.000 C 122.223 276.000,122.007 276.150,121.933 276.332 C 121.789 276.691,114.582 281.600,114.199 281.600 C 114.071 281.600,113.580 281.960,113.108 282.400 C 112.636 282.840,112.013 283.200,111.725 283.200 C 111.436 283.200,111.200 283.351,111.200 283.536 C 111.200 283.720,110.743 284.080,110.185 284.334 C 109.627 284.588,108.952 284.977,108.685 285.198 C 107.418 286.246,100.362 290.800,100.005 290.800 C 99.782 290.800,99.600 290.980,99.600 291.200 C 99.600 291.420,99.364 291.600,99.075 291.600 C 98.787 291.600,98.164 291.960,97.692 292.400 C 97.220 292.840,96.748 293.200,96.645 293.200 C 96.541 293.200,91.137 296.710,84.636 301.000 C 78.134 305.290,72.632 308.800,72.408 308.800 C 72.183 308.800,72.000 308.980,72.000 309.200 C 72.000 309.420,71.730 309.600,71.400 309.600 C 71.070 309.600,70.800 309.780,70.800 310.000 C 70.800 310.220,70.530 310.400,70.200 310.400 C 69.870 310.400,69.600 310.580,69.600 310.800 C 69.600 311.020,69.330 311.200,69.000 311.200 C 68.670 311.200,68.400 311.350,68.400 311.532 C 68.400 311.715,67.905 312.120,67.300 312.432 C 66.695 312.745,65.851 313.315,65.425 313.700 C 64.998 314.085,64.413 314.400,64.125 314.400 C 63.836 314.400,63.600 314.550,63.600 314.732 C 63.600 314.915,63.105 315.320,62.500 315.632 C 61.895 315.945,61.220 316.340,61.000 316.511 C 60.780 316.682,58.890 317.918,56.800 319.257 C 47.428 325.261,38.817 331.025,38.809 331.300 C 38.804 331.465,67.224 331.600,101.965 331.600 C 161.906 331.600,165.122 331.564,164.995 330.900 C 164.922 330.515,164.847 311.885,164.831 289.500 C 164.814 267.115,164.665 248.809,164.500 248.819 C 164.335 248.830,163.210 249.541,162.000 250.400 M235.200 290.200 L 235.200 331.600 298.200 331.600 C 332.850 331.600,361.200 331.450,361.200 331.268 C 361.200 331.085,360.750 330.694,360.200 330.400 C 359.650 330.106,359.200 329.715,359.200 329.532 C 359.200 329.350,358.964 329.200,358.675 329.200 C 358.387 329.200,357.764 328.840,357.292 328.400 C 356.820 327.960,356.347 327.600,356.240 327.600 C 356.016 327.600,344.632 320.217,339.519 316.756 C 337.605 315.460,335.850 314.400,335.619 314.400 C 335.389 314.400,335.200 314.220,335.200 314.000 C 335.200 313.780,334.930 313.600,334.600 313.600 C 334.270 313.600,334.000 313.420,334.000 313.200 C 334.000 312.980,333.730 312.800,333.400 312.800 C 333.070 312.800,332.800 312.620,332.800 312.400 C 332.800 312.180,332.530 312.000,332.200 312.000 C 331.870 312.000,331.600 311.820,331.600 311.600 C 331.600 311.380,331.330 311.200,331.000 311.200 C 330.670 311.200,330.400 311.020,330.400 310.800 C 330.400 310.580,330.130 310.400,329.800 310.400 C 329.470 310.400,329.200 310.220,329.200 310.000 C 329.200 309.780,328.930 309.600,328.600 309.600 C 328.270 309.600,328.000 309.442,328.000 309.249 C 328.000 309.055,327.460 308.673,326.800 308.400 C 326.140 308.127,325.600 307.745,325.600 307.551 C 325.600 307.358,325.404 307.200,325.166 307.200 C 324.797 307.200,312.969 299.510,293.070 286.332 C 290.468 284.610,288.207 283.200,288.045 283.200 C 287.883 283.200,287.402 282.885,286.975 282.500 C 286.549 282.115,285.708 281.546,285.107 281.236 C 284.505 280.926,283.695 280.386,283.307 280.036 C 282.918 279.686,282.105 279.145,281.500 278.832 C 280.895 278.520,280.400 278.115,280.400 277.932 C 280.400 277.750,280.164 277.600,279.875 277.600 C 279.587 277.600,279.002 277.285,278.575 276.900 C 278.149 276.515,277.305 275.945,276.700 275.632 C 276.095 275.320,275.600 274.915,275.600 274.732 C 275.600 274.550,275.412 274.400,275.181 274.400 C 274.951 274.400,270.529 271.610,265.355 268.200 C 260.182 264.790,255.863 262.000,255.758 262.000 C 255.652 262.000,255.180 261.640,254.708 261.200 C 254.236 260.760,253.613 260.400,253.325 260.400 C 253.036 260.400,252.800 260.220,252.800 260.000 C 252.800 259.780,252.530 259.600,252.200 259.600 C 251.870 259.600,251.600 259.420,251.600 259.200 C 251.600 258.980,251.330 258.800,251.000 258.800 C 250.670 258.800,250.400 258.620,250.400 258.400 C 250.400 258.180,250.164 258.000,249.875 258.000 C 249.587 258.000,248.964 257.640,248.492 257.200 C 248.020 256.760,247.543 256.400,247.432 256.400 C 247.321 256.400,245.777 255.410,244.000 254.200 C 242.223 252.990,240.676 252.000,240.563 252.000 C 240.449 252.000,239.296 251.280,238.000 250.400 C 236.704 249.520,235.544 248.800,235.422 248.800 C 235.300 248.800,235.200 267.430,235.200 290.200 " stroke="none" fill="#44449c" fill-rule="evenodd"></path></g></svg>